<svg class="animated" id="freepik_stories-online-review" xmlns="http://www.w3.org/2000/svg" xmlns:xlink="http://www.w3.org/1999/xlink" viewBox="0 0 500 500" version="1.1" xmlns:svgjs="http://svgjs.com/svgjs"><style>svg#freepik_stories-online-review:not(.animated) .animable {opacity: 0;}svg#freepik_stories-online-review.animated #freepik--floor--inject-15--inject-140 {animation: 1s 1 forwards cubic-bezier(.36,-0.01,.5,1.38) slideRight;animation-delay: 0s;}svg#freepik_stories-online-review.animated #freepik--Floor--inject-15--inject-140 {animation: 1s 1 forwards cubic-bezier(.36,-0.01,.5,1.38) slideRight;animation-delay: 0s;}svg#freepik_stories-online-review.animated #freepik--shadow--inject-15--inject-140 {animation: 1s 1 forwards cubic-bezier(.36,-0.01,.5,1.38) slideRight;animation-delay: 0s;}svg#freepik_stories-online-review.animated #freepik--Shadow--inject-15--inject-140 {animation: 1s 1 forwards cubic-bezier(.36,-0.01,.5,1.38) slideRight;animation-delay: 0s;}svg#freepik_stories-online-review.animated #freepik--plants--inject-15--inject-140 {animation: 1s 1 forwards cubic-bezier(.36,-0.01,.5,1.38) zoomIn;animation-delay: 0s;}svg#freepik_stories-online-review.animated #freepik--Plants--inject-15--inject-140 {animation: 1s 1 forwards cubic-bezier(.36,-0.01,.5,1.38) zoomIn,1.5s Infinite  linear wind;animation-delay: 0s,1s;}svg#freepik_stories-online-review.animated #freepik--Board--inject-15--inject-140 {animation: 1s 1 forwards cubic-bezier(.36,-0.01,.5,1.38) zoomOut;animation-delay: 0s;}svg#freepik_stories-online-review.animated #el2qohfzv6bh9 {animation: 1s 1 forwards cubic-bezier(.36,-0.01,.5,1.38) slideDown;animation-delay: 0s;}svg#freepik_stories-online-review.animated #el606z47u3i2e {animation: 1s 1 forwards cubic-bezier(.36,-0.01,.5,1.38) slideDown;animation-delay: 0.020833333333333332s;opacity: 0}svg#freepik_stories-online-review.animated #els3vnw3k1rd {animation: 1s 1 forwards cubic-bezier(.36,-0.01,.5,1.38) slideDown;animation-delay: 0.041666666666666664s;opacity: 0}svg#freepik_stories-online-review.animated #el5qmz041nixw {animation: 1s 1 forwards cubic-bezier(.36,-0.01,.5,1.38) slideDown;animation-delay: 0.0625s;opacity: 0}svg#freepik_stories-online-review.animated #elhf0cw9jnzu {animation: 1s 1 forwards cubic-bezier(.36,-0.01,.5,1.38) slideDown;animation-delay: 0.08333333333333333s;opacity: 0}svg#freepik_stories-online-review.animated #elnu3z3coupre {animation: 1s 1 forwards cubic-bezier(.36,-0.01,.5,1.38) slideDown;animation-delay: 0.10416666666666666s;opacity: 0}svg#freepik_stories-online-review.animated #elm89tn2ziq6 {animation: 1s 1 forwards cubic-bezier(.36,-0.01,.5,1.38) slideDown;animation-delay: 0.125s;opacity: 0}svg#freepik_stories-online-review.animated #freepik--stars--inject-15--inject-140 {animation: 1s 1 forwards cubic-bezier(.36,-0.01,.5,1.38) slideDown;animation-delay: 0.14583333333333331s;opacity: 0}svg#freepik_stories-online-review.animated #el9mxxy3dhae {animation: 1s 1 forwards cubic-bezier(.36,-0.01,.5,1.38) slideDown;animation-delay: 0.16666666666666666s;opacity: 0}svg#freepik_stories-online-review.animated #elxizrbxqswp {animation: 1s 1 forwards cubic-bezier(.36,-0.01,.5,1.38) slideDown;animation-delay: 0.1875s;opacity: 0}svg#freepik_stories-online-review.animated #elii4r4wxulh {animation: 1s 1 forwards cubic-bezier(.36,-0.01,.5,1.38) slideDown;animation-delay: 0.20833333333333331s;opacity: 0}svg#freepik_stories-online-review.animated #elq70hsqu82ub {animation: 1s 1 forwards cubic-bezier(.36,-0.01,.5,1.38) slideDown;animation-delay: 0.22916666666666666s;opacity: 0}svg#freepik_stories-online-review.animated #eltxv337jgqgg {animation: 1s 1 forwards cubic-bezier(.36,-0.01,.5,1.38) slideDown;animation-delay: 0.25s;opacity: 0}svg#freepik_stories-online-review.animated #ellhrgxneny2k {animation: 1s 1 forwards cubic-bezier(.36,-0.01,.5,1.38) slideDown;animation-delay: 0.2708333333333333s;opacity: 0}svg#freepik_stories-online-review.animated #el4bqei67iua4 {animation: 1s 1 forwards cubic-bezier(.36,-0.01,.5,1.38) slideDown;animation-delay: 0.29166666666666663s;opacity: 0}svg#freepik_stories-online-review.animated #freepik--stars--inject-15--inject-140 {animation: 1s 1 forwards cubic-bezier(.36,-0.01,.5,1.38) slideDown;animation-delay: 0.3125s;opacity: 0}svg#freepik_stories-online-review.animated #eldm6x9obwdne {animation: 1s 1 forwards cubic-bezier(.36,-0.01,.5,1.38) slideDown;animation-delay: 0.3333333333333333s;opacity: 0}svg#freepik_stories-online-review.animated #el6xb0ahacijy {animation: 1s 1 forwards cubic-bezier(.36,-0.01,.5,1.38) slideDown;animation-delay: 0.35416666666666663s;opacity: 0}svg#freepik_stories-online-review.animated #elkogbc9g0pb {animation: 1s 1 forwards cubic-bezier(.36,-0.01,.5,1.38) slideDown;animation-delay: 0.375s;opacity: 0}svg#freepik_stories-online-review.animated #elwhuo25gaj4b {animation: 1s 1 forwards cubic-bezier(.36,-0.01,.5,1.38) slideDown;animation-delay: 0.3958333333333333s;opacity: 0}svg#freepik_stories-online-review.animated #elhr2p52tgi6e {animation: 1s 1 forwards cubic-bezier(.36,-0.01,.5,1.38) slideDown;animation-delay: 0.41666666666666663s;opacity: 0}svg#freepik_stories-online-review.animated #elxtged9i3md {animation: 1s 1 forwards cubic-bezier(.36,-0.01,.5,1.38) slideDown;animation-delay: 0.4375s;opacity: 0}svg#freepik_stories-online-review.animated #elwrya1t9i71r {animation: 1s 1 forwards cubic-bezier(.36,-0.01,.5,1.38) slideDown;animation-delay: 0.4583333333333333s;opacity: 0}svg#freepik_stories-online-review.animated #freepik--stars--inject-15--inject-140 {animation: 1s 1 forwards cubic-bezier(.36,-0.01,.5,1.38) slideDown;animation-delay: 0.47916666666666663s;opacity: 0}svg#freepik_stories-online-review.animated #elx4vjt6qb7q {animation: 1s 1 forwards cubic-bezier(.36,-0.01,.5,1.38) slideDown;animation-delay: 0.5s;opacity: 0}svg#freepik_stories-online-review.animated #elzaxza80cdh9 {animation: 1s 1 forwards cubic-bezier(.36,-0.01,.5,1.38) slideDown;animation-delay: 0.5208333333333333s;opacity: 0}svg#freepik_stories-online-review.animated #el1alebtj3qpd {animation: 1s 1 forwards cubic-bezier(.36,-0.01,.5,1.38) slideDown;animation-delay: 0.5416666666666666s;opacity: 0}svg#freepik_stories-online-review.animated #elh1cl9c7cd3d {animation: 1s 1 forwards cubic-bezier(.36,-0.01,.5,1.38) slideDown;animation-delay: 0.5625s;opacity: 0}svg#freepik_stories-online-review.animated #elzp8mtqrthpq {animation: 1s 1 forwards cubic-bezier(.36,-0.01,.5,1.38) slideDown;animation-delay: 0.5833333333333333s;opacity: 0}svg#freepik_stories-online-review.animated #elddmqmdfn6cm {animation: 1s 1 forwards cubic-bezier(.36,-0.01,.5,1.38) slideDown;animation-delay: 0.6041666666666666s;opacity: 0}svg#freepik_stories-online-review.animated #elwe8l6e85x2b {animation: 1s 1 forwards cubic-bezier(.36,-0.01,.5,1.38) slideDown;animation-delay: 0.625s;opacity: 0}svg#freepik_stories-online-review.animated #freepik--stars--inject-15--inject-140 {animation: 1s 1 forwards cubic-bezier(.36,-0.01,.5,1.38) slideDown;animation-delay: 0.6458333333333333s;opacity: 0}svg#freepik_stories-online-review.animated #elvmetwh7k219 {animation: 1s 1 forwards cubic-bezier(.36,-0.01,.5,1.38) slideDown;animation-delay: 0.6666666666666666s;opacity: 0}svg#freepik_stories-online-review.animated #elac7mb7xlbcr {animation: 1s 1 forwards cubic-bezier(.36,-0.01,.5,1.38) slideDown;animation-delay: 0.6875s;opacity: 0}svg#freepik_stories-online-review.animated #elzy7cuctbnk {animation: 1s 1 forwards cubic-bezier(.36,-0.01,.5,1.38) slideDown;animation-delay: 0.7083333333333333s;opacity: 0}svg#freepik_stories-online-review.animated #elpldnltx9sl {animation: 1s 1 forwards cubic-bezier(.36,-0.01,.5,1.38) slideDown;animation-delay: 0.7291666666666666s;opacity: 0}svg#freepik_stories-online-review.animated #el8516bbejw9c {animation: 1s 1 forwards cubic-bezier(.36,-0.01,.5,1.38) slideDown;animation-delay: 0.75s;opacity: 0}svg#freepik_stories-online-review.animated #elljl41s75nss {animation: 1s 1 forwards cubic-bezier(.36,-0.01,.5,1.38) slideDown;animation-delay: 0.7708333333333333s;opacity: 0}svg#freepik_stories-online-review.animated #elxrji96pj16a {animation: 1s 1 forwards cubic-bezier(.36,-0.01,.5,1.38) slideDown;animation-delay: 0.7916666666666666s;opacity: 0}svg#freepik_stories-online-review.animated #freepik--stars--inject-15--inject-140 {animation: 1s 1 forwards cubic-bezier(.36,-0.01,.5,1.38) slideDown;animation-delay: 0.8125s;opacity: 0}svg#freepik_stories-online-review.animated #eldn4qlnpf9ge {animation: 1s 1 forwards cubic-bezier(.36,-0.01,.5,1.38) slideDown;animation-delay: 0.8333333333333333s;opacity: 0}svg#freepik_stories-online-review.animated #eldyr6jersfrg {animation: 1s 1 forwards cubic-bezier(.36,-0.01,.5,1.38) slideDown;animation-delay: 0.8541666666666666s;opacity: 0}svg#freepik_stories-online-review.animated #ele8hvt88mlb8 {animation: 1s 1 forwards cubic-bezier(.36,-0.01,.5,1.38) slideDown;animation-delay: 0.875s;opacity: 0}svg#freepik_stories-online-review.animated #el8w9v754u7to {animation: 1s 1 forwards cubic-bezier(.36,-0.01,.5,1.38) slideDown;animation-delay: 0.8958333333333333s;opacity: 0}svg#freepik_stories-online-review.animated #elxtm8n29er4 {animation: 1s 1 forwards cubic-bezier(.36,-0.01,.5,1.38) slideDown;animation-delay: 0.9166666666666666s;opacity: 0}svg#freepik_stories-online-review.animated #elsl9zgz2ihu9 {animation: 1s 1 forwards cubic-bezier(.36,-0.01,.5,1.38) slideDown;animation-delay: 0.9375s;opacity: 0}svg#freepik_stories-online-review.animated #eli66cdgohmw {animation: 1s 1 forwards cubic-bezier(.36,-0.01,.5,1.38) slideDown;animation-delay: 0.9583333333333333s;opacity: 0}svg#freepik_stories-online-review.animated #freepik--stars--inject-15--inject-140 {animation: 1s 1 forwards cubic-bezier(.36,-0.01,.5,1.38) slideDown;animation-delay: 0.9791666666666666s;opacity: 0}svg#freepik_stories-online-review.animated #freepik--characters-boxes--inject-15--inject-140 {animation: 1s 1 forwards cubic-bezier(.36,-0.01,.5,1.38) slideDown,1.5s Infinite  linear floating;animation-delay: 0s,1s;}svg#freepik_stories-online-review.animated #freepik--character--inject-15--inject-140 {animation: 1s 1 forwards cubic-bezier(.36,-0.01,.5,1.38) slideRight;animation-delay: 0s;}            @keyframes slideRight {                0% {                    opacity: 0;                    transform: translateX(30px);                }                100% {                    opacity: 1;                    transform: translateX(0);                }            }                    @keyframes zoomIn {                0% {                    opacity: 0;                    transform: scale(0.5);                }                100% {                    opacity: 1;                    transform: scale(1);                }            }                    @keyframes wind {                0% {                    transform: rotate( 0deg );                }                25% {                    transform: rotate( 1deg );                }                75% {                    transform: rotate( -1deg );                }            }                    @keyframes zoomOut {                0% {                    opacity: 0;                    transform: scale(1.5);                }                100% {                    opacity: 1;                    transform: scale(1);                }            }                    @keyframes slideDown {                0% {                    opacity: 0;                    transform: translateY(-30px);                }                100% {                    opacity: 1;                    transform: translateY(0);                }            }                    @keyframes floating {                0% {                    opacity: 1;                    transform: translateY(0px);                }                50% {                    transform: translateY(-10px);                }                100% {                    opacity: 1;                    transform: translateY(0px);                }            }        </style><!--6 Grades--><g id="freepik--Floor--inject-15--inject-140" class="animable" style="transform-origin: 249.05px 363.55px;"><ellipse id="freepik--floor--inject-15--inject-140" cx="249.05" cy="363.55" rx="221.3" ry="114.92" style="fill: rgb(245, 245, 245); transform-origin: 249.05px 363.55px;" class="animable"></ellipse></g><g id="freepik--Shadow--inject-15--inject-140" class="animable" style="transform-origin: 403.41px 390.32px;"><ellipse id="freepik--shadow--inject-15--inject-140" cx="403.41" cy="390.32" rx="49.59" ry="30.13" style="fill: rgb(224, 224, 224); transform-origin: 403.41px 390.32px;" class="animable"></ellipse></g><g id="freepik--Plants--inject-15--inject-140" class="animable" style="transform-origin: 66.6786px 364.475px;"><g id="freepik--plants--inject-15--inject-140" class="animable" style="transform-origin: 66.6786px 364.475px;"><path d="M87.32,364.06a59,59,0,0,0-4-17C79.78,338.3,73,329.48,65.1,327.81s-11.19,3.62-9.53,8.82c1.43,4.47,7.27,8.18,11.7,12.09s12.72,13.33,15,22.45l4.43.48Z" style="fill: rgb(228, 24, 23); transform-origin: 71.2354px 349.573px;" id="el93jryiovefm" class="animable"></path><g id="eliw6y5w3ir9p"><g style="opacity: 0.15; transform-origin: 71.2354px 349.573px;" class="animable"><path d="M87.32,364.06a59,59,0,0,0-4-17C79.78,338.3,73,329.48,65.1,327.81s-11.19,3.62-9.53,8.82c1.43,4.47,7.27,8.18,11.7,12.09s12.72,13.33,15,22.45l4.43.48Z" id="el9h8wpr65leo" class="animable" style="transform-origin: 71.2354px 349.573px;"></path></g></g><path d="M84.3,368.17a.5.5,0,0,1-.5-.48C83,344.78,60.57,332,60.34,331.84a.49.49,0,1,1,.48-.86c.23.13,23.12,13.22,24,36.68a.49.49,0,0,1-.48.51Z" style="fill: rgb(255, 255, 255); transform-origin: 72.454px 349.544px;" id="el4b5ajyh0pi2" class="animable"></path><path d="M84.55,399.49s-4.58,2.89-11.74,1.66a11,11,0,0,1-6.16-3c-1.85-1.91-2.14-3.82-2.66-6.37a7.66,7.66,0,0,0-1.08-3c-1.53-2.11-4.59-2.07-7.14-2.62a10.6,10.6,0,0,1-8-6.93c-1.05-3.56.65-7.89,4.08-9.28l-4.2-2.69A18.37,18.37,0,0,1,44,364.53a6.2,6.2,0,0,1-1.81-4,5.94,5.94,0,0,1,3.7-5.15,12.59,12.59,0,0,1,6.59-.67,29.3,29.3,0,0,1,6.58,1.55,4.7,4.7,0,0,0,1.84.41,4.86,4.86,0,0,0,2.25-1c4.81-3.18,12.66-2.94,15.24,3.06.38.88.61,1.82,1,2.69,1.5,3.23,5.71,2.26,8.43,3.77A6.87,6.87,0,0,1,91,370c.54,3.2-.35,6.84-.94,10s-1.34,6.08-2.2,9.08c-.7,2.46-1.47,4.91-2.29,7.34C85.43,397,85.05,399.17,84.55,399.49Z" style="fill: rgb(228, 24, 23); transform-origin: 66.6786px 377.55px;" id="eldibl49y9im5" class="animable"></path><path d="M87.43,392.1a44.12,44.12,0,0,0-11.5-17.32.49.49,0,0,0-.26-.25c-1.52-1.42-3.09-2.74-4.67-3.95A23.73,23.73,0,0,1,72.59,358a.49.49,0,0,0-.24-.66.48.48,0,0,0-.65.24,24.52,24.52,0,0,0-1.82,12.13,75.71,75.71,0,0,0-21.67-10.86.5.5,0,0,0-.26,1A73.4,73.4,0,0,1,73.67,374c-7.07-1.23-15.52,2.18-15.91,2.34a.5.5,0,0,0-.27.65.49.49,0,0,0,.46.3l.18,0c.1,0,10-4.06,17-1.88a43.24,43.24,0,0,1,11.33,17,.51.51,0,0,0,.47.33.45.45,0,0,0,.16,0A.49.49,0,0,0,87.43,392.1Z" style="fill: rgb(255, 255, 255); transform-origin: 67.511px 375.019px;" id="el2lvtimfkmz7" class="animable"></path></g></g><g id="freepik--Board--inject-15--inject-140" class="animable" style="transform-origin: 199.795px 215.19px;"><polygon points="98.49 388.04 307.54 267.35 307.54 46.05 98.49 166.75 98.49 388.04" style="fill: rgb(228, 24, 23); transform-origin: 203.015px 217.045px;" id="elr6jiawn2u1n" class="animable"></polygon><polygon points="88.84 161.18 98.49 166.75 307.54 46.05 317.18 29.34 88.84 161.18" style="fill: rgb(55, 71, 79); transform-origin: 203.01px 98.045px;" id="ellzpwqoug3fi" class="animable"></polygon><polygon points="317.18 272.92 317.18 29.34 307.54 46.05 307.54 267.35 317.18 272.92" style="fill: rgb(55, 71, 79); transform-origin: 312.36px 151.13px;" id="el123kd0908bg" class="animable"></polygon><polygon points="88.84 161.18 98.49 166.75 98.49 388.04 88.84 404.75 88.84 161.18" style="fill: rgb(55, 71, 79); transform-origin: 93.665px 282.965px;" id="elosbukrqh9c" class="animable"></polygon><polygon points="98.49 388.04 307.54 267.35 317.18 272.92 88.84 404.75 98.49 388.04" style="fill: rgb(55, 71, 79); transform-origin: 203.01px 336.05px;" id="elvxbeuss5uwr" class="animable"></polygon><g id="elpmtjox530t"><g style="opacity: 0.5; transform-origin: 203.01px 98.045px;" class="animable"><polygon points="88.84 161.18 98.49 166.75 307.54 46.05 317.18 29.34 88.84 161.18" style="fill: rgb(69, 90, 100); transform-origin: 203.01px 98.045px;" id="elp4x34kqqfw" class="animable"></polygon></g></g><g id="elkqv1mm7e5i"><g style="opacity: 0.5; transform-origin: 203.01px 336.05px;" class="animable"><polygon points="98.49 388.04 307.54 267.35 317.18 272.92 88.84 404.75 98.49 388.04" style="fill: rgb(69, 90, 100); transform-origin: 203.01px 336.05px;" id="elnfuue8bo1yo" class="animable"></polygon></g></g><polygon points="317.18 29.34 310.75 25.63 82.41 157.46 88.84 161.18 317.18 29.34" style="fill: rgb(69, 90, 100); transform-origin: 199.795px 93.405px;" id="el0vqy8xj0zio" class="animable"></polygon><polygon points="82.41 157.46 88.84 161.18 88.84 404.75 82.41 401.04 82.41 157.46" style="fill: rgb(38, 50, 56); transform-origin: 85.625px 281.105px;" id="elr8xexcs1rh" class="animable"></polygon><g id="elo3z310iy1jq"><g style="opacity: 0.1; mix-blend-mode: multiply; transform-origin: 203.015px 217.045px;" class="animable"><polygon points="307.54 46.05 304.32 47.91 304.32 265.49 98.49 384.32 98.49 388.04 307.54 267.35 307.54 46.05" id="elq0qhm9wb5n" class="animable" style="transform-origin: 203.015px 217.045px;"></polygon></g></g></g><g id="freepik--characters-boxes--inject-15--inject-140" class="animable" style="transform-origin: 217.543px 222.901px;"><path d="M296.3,174l-.06-2.93-3.48-2h0a1.09,1.09,0,0,0-1.11.11l-48.49,28a3.49,3.49,0,0,0-1.57,2.72v61.66a1.11,1.11,0,0,0,.45,1h0l3.49,2v-3.47l46.11-26.57a3.46,3.46,0,0,0,1.57-2.72V174Z" style="fill: rgb(224, 224, 224); transform-origin: 268.943px 216.763px;" id="el2qohfzv6bh9" class="animable"></path><path d="M296.24,171l-3.48-2h0a1.09,1.09,0,0,0-1.11.11l-48.49,28a3.12,3.12,0,0,0-1,1L247.1,201l46.12-26.05Z" style="fill: rgb(250, 250, 250); transform-origin: 269.2px 184.948px;" id="el606z47u3i2e" class="animable"></path><path d="M246.64,199.13l48.48-28c.87-.5,1.57-.1,1.57.91v61.71a3.46,3.46,0,0,1-1.57,2.72l-48.48,27.94c-.87.5-1.57.1-1.57-.9V201.85A3.46,3.46,0,0,1,246.64,199.13Z" style="fill: rgb(240, 240, 240); transform-origin: 270.88px 217.77px;" id="els3vnw3k1rd" class="animable"></path><g style="clip-path: url(&quot;#freepik--clip-path--inject-15--inject-140&quot;); transform-origin: 286.075px 248.491px;" id="el5qmz041nixw" class="animable"><g id="freepik--character-boy--inject-15--inject-140" class="animable" style="transform-origin: 290.675px 237.883px;"><path d="M280.52,225.21s3.81-1.18,7,3.83c2.16,3.4,9.7,16.33,9.7,16.33s14.67-7.78,15.49-8.8.78-3.08.9-4.19a12.16,12.16,0,0,0-.57-4.13c-.17-1.17,1.51-1.23,2.34.39.6,1.18.65,2.53,1.17,2.55a14.57,14.57,0,0,0,2.06-1.75c.91-1,2.55-2.66,3.8-2.43a1.08,1.08,0,0,1,.83.89,5.75,5.75,0,0,0,.46,2,3.24,3.24,0,0,1,.49.8,7,7,0,0,1,0,1.29c0,.61.65.87.73,1.47.06.43-.16.93-.15,1.39,0,.29.09.55.09.85a2.82,2.82,0,0,1-.75,1.63,17.47,17.47,0,0,1-4.36,3.65c-1.34.87-3.1,1.65-4.61,2.47S296.31,257.51,294,256s-13.84-18.38-13.84-18.38C277.52,230.15,280.52,225.21,280.52,225.21Z" style="fill: rgb(255, 168, 167); transform-origin: 302.002px 240.604px;" id="elap7terqfbo5" class="animable"></path><path d="M273.82,225.32s4.2-1.7,6.93-1.53,4.74,1,6.74,4.17c2.67,4.28,7.08,11.69,7.08,11.69a21.32,21.32,0,0,1-8.58,9.18l-8.13-12.28Z" style="fill: rgb(69, 90, 100); transform-origin: 284.195px 236.304px;" id="elt8vz64vjg7" class="animable"></path><g id="freepik--character-boy--inject-15--inject-140" class="animable" style="transform-origin: 271.598px 237.883px;"><path d="M260.5,232.74a9,9,0,0,0-3,4.37,21.2,21.2,0,0,0-.91,6.39v13.95l-.17,26.4c8.85,3,20.1.36,29.54-10.14,0,0-.52-33.76-.52-39.31,0-.25,0-.5,0-.76-.34-7.83-7.1-11.45-13.75-7.7l-5.59,3.16-5.61,3.64Z" style="fill: rgb(228, 24, 23); transform-origin: 271.19px 254.73px;" id="elz2fou12g5zi" class="animable"></path><g id="elhmr93nmkyip"><path d="M260.5,232.74a9,9,0,0,0-3,4.37,21.2,21.2,0,0,0-.91,6.39v13.95l-.17,26.4c8.85,3,20.1.36,29.54-10.14,0,0-.52-33.76-.52-39.31,0-.25,0-.5,0-.76-.34-7.83-7.1-11.45-13.75-7.7l-5.59,3.16-5.61,3.64Z" style="opacity: 0.2; transform-origin: 271.19px 254.73px;" class="animable"></path></g><path d="M279.68,201.26c-1-1-1.62-2.55-.43-3.7a1.91,1.91,0,0,1,1-.58c.48-.07.91,0,1.39-.12s1.11-.22,1.65-.38a10.92,10.92,0,0,0,3-1.4.33.33,0,0,1,.25-.08c.1,0,.15.15.17.26a5.92,5.92,0,0,1-2.63,5.85,5,5,0,0,1-2.23.88A2.83,2.83,0,0,1,279.68,201.26Z" style="fill: rgb(38, 50, 56); transform-origin: 282.688px 198.5px;" id="el8hx344i8bq2" class="animable"></path><path d="M261.69,213.45s1.37,7.09,1.92,8.17a2.1,2.1,0,0,0,1.69,1.12l-.09-5.22Z" style="fill: rgb(38, 50, 56); transform-origin: 263.495px 218.095px;" id="elddp1xk4aadf" class="animable"></path><path d="M263.41,202.3a3.85,3.85,0,0,0-2.63,1.78c-1.14,1.64-.5,5.65.91,9.37l2.58-.35Z" style="fill: rgb(38, 50, 56); transform-origin: 262.232px 207.875px;" id="el9oj9p0gpi0c" class="animable"></path><path d="M265.05,212.9c-.52.49-1.26-.46-1.9-1.06s-2.73-1.1-3.77,1.71.92,5.76,2.56,5.92c2.84.26,3.27-1.95,3.27-1.95l.09,12.11c4.76,5,13.1-.91,9.35-3.14V222.9a16.45,16.45,0,0,0,3.83-.8c2.08-.93,3.39-3.18,4-6,1-4.46.92-7.11.58-15.15-.23-5.52-10.08-7.23-15-2.35S265.05,212.9,265.05,212.9Z" style="fill: rgb(177, 122, 123); transform-origin: 271.19px 213.657px;" id="elnf782tki3bi" class="animable"></path><path d="M265.05,213.9c-.26.08-1.25-1.56-1.9-2.06-.89-.7.26-9.54.26-9.54-1-2.27.87-5.71,2.87-7.11a11.65,11.65,0,0,1,4.73-1.74c2-.36,3.95-.58,5.95-.79a20.68,20.68,0,0,0,3.22-.57,26.67,26.67,0,0,0,2.95-1.18,1.17,1.17,0,0,1,.89-.11c1.19.54.41,3.38.14,4.31a10.49,10.49,0,0,1-2.35,4.24,6.42,6.42,0,0,1-1.24,1.09,8.17,8.17,0,0,1-1.77.83,23.17,23.17,0,0,1-9,1.31,4,4,0,0,0-1.7.13c-1.24.5-1.18,2.65-1.37,3.75C266.31,209.17,265.93,213.65,265.05,213.9Z" style="fill: rgb(38, 50, 56); transform-origin: 273.737px 202.33px;" id="el1ooc2odaeot" class="animable"></path><path d="M263.42,203l-3.14-1.11a2.08,2.08,0,0,1,2.37-1.54C263.52,200.62,263.86,201.81,263.42,203Z" style="fill: rgb(38, 50, 56); transform-origin: 261.946px 201.66px;" id="elb5tbv5ycgm" class="animable"></path><path d="M274.64,222.9s-4.65.16-6.28-.4a4,4,0,0,1-2.25-2,6.82,6.82,0,0,0,1.28,2.69c1.19,1.44,7.25,1.11,7.25,1.11Z" style="fill: rgb(154, 88, 90); transform-origin: 270.375px 222.416px;" id="ely7bwcwu5ztg" class="animable"></path><path d="M274.05,210.47a1.43,1.43,0,0,1-.93,1.37c-.51.13-.93-.26-.93-.88a1.43,1.43,0,0,1,.93-1.36C273.64,209.46,274.05,209.85,274.05,210.47Z" style="fill: rgb(38, 50, 56); transform-origin: 273.12px 210.718px;" id="elsvsbrvgpa7" class="animable"></path><path d="M272.71,207.33l-2,1.8a1.76,1.76,0,0,1,.47-1.95A.92.92,0,0,1,272.71,207.33Z" style="fill: rgb(38, 50, 56); transform-origin: 271.65px 207.984px;" id="elzyrajamkqtr" class="animable"></path><path d="M274.22,216.54l2.13.35a1.46,1.46,0,0,1-1.45,1.2C274.32,218,274,217.3,274.22,216.54Z" style="fill: rgb(154, 88, 90); transform-origin: 275.25px 217.315px;" id="el5v79c9gbd53" class="animable"></path><path d="M282.31,206l-1.82-1.13c.37-.7,1.08-1,1.58-.7A1.4,1.4,0,0,1,282.31,206Z" style="fill: rgb(38, 50, 56); transform-origin: 281.518px 205.027px;" id="elvgcilbsrzx" class="animable"></path><path d="M281.81,208.08a1.43,1.43,0,0,1-.93,1.37c-.51.14-.93-.25-.93-.87a1.45,1.45,0,0,1,.93-1.37C281.4,207.08,281.81,207.47,281.81,208.08Z" style="fill: rgb(38, 50, 56); transform-origin: 280.88px 208.332px;" id="el07q1vssqbw1o" class="animable"></path><polygon points="277.2 208.46 277.31 214.96 280.66 213.21 277.2 208.46" style="fill: rgb(154, 88, 90); transform-origin: 278.93px 211.71px;" id="elp3rfc7o0urr" class="animable"></polygon></g></g><path d="M247.33,272.65c2-26.89,5.94-36.53,12.49-39.36,2.27,1.69,2.81,9.59.45,15.59,0,0-5.09,17.93-5.38,24a98.11,98.11,0,0,0,1,17,2.44,2.44,0,0,0,1,1.69c1.44.93,1.34,2.28,2.37,3.57.8,1,1.55,1.17,1.39,1.55a1.77,1.77,0,0,1-2,1.07,5.53,5.53,0,0,1-1.76-1,14.43,14.43,0,0,0,1.85,4c1.86,2.84,1.77,4.76-2.6,5.41-2.74.4-4.73-1.3-6.11-8.16-.4-2-1.33-5.54-1.72-8.1A79.26,79.26,0,0,1,247.33,272.65Z" style="fill: rgb(177, 122, 123); transform-origin: 254.511px 269.757px;" id="elkkzu5rn6zso" class="animable"></path><path d="M261.69,232s-4.78,1.67-7.19,5.58-4.7,10.19-6.32,21.35c0,0,3,4.13,10.9.7,0,0,3.42-14.24,3.73-19.87C263.14,233.59,261.69,232,261.69,232Z" style="fill: rgb(69, 90, 100); transform-origin: 255.519px 246.496px;" id="el1gggb79bd8t" class="animable"></path></g><path d="M296.3,247.71l-.06-2.93-3.48-2h0a1.09,1.09,0,0,0-1.11.11l-48.49,28a3.49,3.49,0,0,0-1.57,2.72v14.44a1.1,1.1,0,0,0,.45,1h0l3.49,2V287.6L291.65,261a3.46,3.46,0,0,0,1.57-2.72v-10.6Z" style="fill: rgb(224, 224, 224); transform-origin: 268.942px 266.863px;" id="elhf0cw9jnzu" class="animable"></path><path d="M296.24,244.78l-3.48-2h0a1.09,1.09,0,0,0-1.11.11l-48.49,28a3.12,3.12,0,0,0-1,1l4.93,2.85,46.12-26.05Z" style="fill: rgb(250, 250, 250); transform-origin: 269.2px 258.708px;" id="elnu3z3coupre" class="animable"></path><path d="M246.64,272.88l48.48-28c.87-.5,1.57-.09,1.57.91v14.49a3.45,3.45,0,0,1-1.57,2.72L246.64,291c-.87.5-1.57.09-1.57-.91V275.61A3.47,3.47,0,0,1,246.64,272.88Z" style="fill: rgb(240, 240, 240); transform-origin: 270.88px 267.94px;" id="elm89tn2ziq6" class="animable"></path><g id="freepik--stars--inject-15--inject-140" class="animable" style="transform-origin: 270.909px 268.18px;"><path d="M251.25,274.23l.89,1.87a.21.21,0,0,0,.28.12l2-.76c.31-.12.43.32.21.75l-1.43,2.68a.88.88,0,0,0-.11.51l.34,2.42c.05.39-.28.9-.56.86l-1.76-.22a.46.46,0,0,0-.36.21L249,284.92c-.28.36-.61.23-.56-.21l.34-2.82a.4.4,0,0,0-.11-.38l-1.43-1c-.22-.16-.1-.74.22-1l2-1.52a.94.94,0,0,0,.29-.44l.88-2.89C250.71,274.17,251.11,273.93,251.25,274.23Z" style="fill: rgb(228, 24, 23); transform-origin: 250.935px 279.613px;" id="ellgn84tu2n2" class="animable"></path><path d="M261.24,268.51l.88,1.88a.21.21,0,0,0,.29.11l2-.76c.31-.12.44.32.21.75l-1.43,2.68a.89.89,0,0,0-.11.51l.34,2.43c.05.38-.27.89-.55.85l-1.77-.21a.41.41,0,0,0-.35.2L259,279.21c-.28.36-.6.23-.55-.22l.34-2.81a.41.41,0,0,0-.11-.39l-1.43-1c-.23-.17-.1-.75.21-1l2-1.52a1,1,0,0,0,.29-.45l.88-2.89C260.69,268.45,261.1,268.22,261.24,268.51Z" style="fill: rgb(228, 24, 23); transform-origin: 260.935px 273.9px;" id="elhiky8gfekx" class="animable"></path><path d="M271.22,262.8l.88,1.87a.21.21,0,0,0,.29.11l2-.75c.32-.12.44.32.22.74l-1.43,2.68a.91.91,0,0,0-.11.52l.34,2.42c.05.39-.28.89-.56.86l-1.76-.22a.44.44,0,0,0-.36.21l-1.76,2.25c-.28.36-.61.23-.56-.22l.34-2.81a.42.42,0,0,0-.11-.39l-1.43-1c-.22-.16-.1-.75.22-1l2-1.52a1,1,0,0,0,.29-.44l.88-2.9C270.68,262.73,271.08,262.5,271.22,262.8Z" style="fill: rgb(228, 24, 23); transform-origin: 270.91px 268.182px;" id="el79fbp9my7d2" class="animable"></path><path d="M281.21,257.08l.88,1.87a.22.22,0,0,0,.29.12l2-.76c.31-.12.44.32.21.75l-1.43,2.68a.88.88,0,0,0-.11.51l.34,2.42c.05.39-.27.9-.55.86l-1.77-.22a.45.45,0,0,0-.35.21l-1.77,2.25c-.28.36-.61.23-.55-.21l.33-2.82a.38.38,0,0,0-.11-.38l-1.42-1c-.23-.17-.1-.75.21-1l2-1.52a.88.88,0,0,0,.29-.44l.88-2.89C280.66,257,281.07,256.78,281.21,257.08Z" style="fill: rgb(228, 24, 23); transform-origin: 280.895px 262.461px;" id="elt2na7q15ui" class="animable"></path><path d="M291.19,251.36l.88,1.88a.21.21,0,0,0,.29.11l2-.76c.32-.12.44.32.21.75L293.12,256a.89.89,0,0,0-.11.51l.33,2.43c.06.38-.27.89-.55.86L291,259.6a.41.41,0,0,0-.36.2l-1.76,2.26c-.28.36-.61.23-.56-.22l.34-2.81a.41.41,0,0,0-.11-.39l-1.43-1c-.22-.17-.1-.75.21-1l2-1.52a.94.94,0,0,0,.28-.45l.89-2.89C290.65,251.3,291.05,251.07,291.19,251.36Z" style="fill: rgb(228, 24, 23); transform-origin: 290.848px 256.75px;" id="elj457z6gjkc" class="animable"></path></g><path d="M296.3,68.74l-.06-2.93-3.48-2h0a1.09,1.09,0,0,0-1.11.11l-48.49,28a3.49,3.49,0,0,0-1.57,2.72v61.66a1.11,1.11,0,0,0,.45,1h0l3.49,2v-3.47l46.11-26.57a3.46,3.46,0,0,0,1.57-2.72V68.74Z" style="fill: rgb(224, 224, 224); transform-origin: 268.943px 111.503px;" id="el9mxxy3dhae" class="animable"></path><path d="M296.24,65.81l-3.48-2h0a1.09,1.09,0,0,0-1.11.11l-48.49,28a3.12,3.12,0,0,0-1,1l4.93,2.85,46.12-26Z" style="fill: rgb(250, 250, 250); transform-origin: 269.2px 79.7385px;" id="elxizrbxqswp" class="animable"></path><path d="M246.64,93.91l48.48-28c.87-.5,1.57-.1,1.57.91v61.71a3.46,3.46,0,0,1-1.57,2.72L246.64,159.2c-.87.5-1.57.1-1.57-.91V96.63A3.46,3.46,0,0,1,246.64,93.91Z" style="fill: rgb(240, 240, 240); transform-origin: 270.88px 112.555px;" id="elii4r4wxulh" class="animable"></path><g style="clip-path: url(&quot;#freepik--clip-path-2--inject-15--inject-140&quot;); transform-origin: 276.171px 144.654px;" id="elq70hsqu82ub" class="animable"><g id="freepik--Character--inject-15--inject-140" class="animable" style="transform-origin: 281.645px 135.708px;"><path d="M284.1,157.54c-5.44-23.86-11.66-28.07-5.85-33,6-2.28,9.06,1,10.1,8,.51,3.42,1.62,17.72,3,23.07,1.22,4.7,2.86,10.52,4.69,13.88a2,2,0,0,0,1.5,1c1.7.25,2.2,1.2,3.59,1.91,1.08.55,1.88.41,1.83.79a2.15,2.15,0,0,1-1.71,1.7,5.93,5.93,0,0,1-2-.14,11.29,11.29,0,0,0,3,2.72c2.66,1.72,3.1,3.41-1.13,5.66-2.64,1.41-5.12.72-8.4-4.65a42.79,42.79,0,0,1-3.31-6.22C287.07,166.42,285,161.38,284.1,157.54Z" style="fill: rgb(177, 102, 104); transform-origin: 290.096px 153.793px;" id="eldzkpczpq0a5" class="animable"></path><path d="M278.25,124.5s2.79-1.31,4.83-.87,4.56,2.11,5.45,8.49c0,0-.54,2-3.4,4Z" style="fill: rgb(69, 90, 100); transform-origin: 283.39px 129.83px;" id="el37fo3ib42t4" class="animable"></path><path d="M268.69,127.38h0c-5.92,2.05-6.33,5.46-7.81,9.47a13.63,13.63,0,0,0-.28,8.87l4.12,12.66A85.49,85.49,0,0,0,260.55,170c10.34,3.9,23.26-3.07,26.37-8.76.13-1.07-.67-8.92-1.16-14.06,1.82-5.76,2.3-9.23,1.53-12.51-1.43-6.1-7-10.92-9.41-10Z" style="fill: rgb(228, 24, 23); transform-origin: 273.817px 147.845px;" id="elxe3bg9ahc8" class="animable"></path><g id="el22sfwx8i3lz"><path d="M268.69,127.38h0c-5.92,2.05-6.33,5.46-7.81,9.47a13.63,13.63,0,0,0-.28,8.87l4.12,12.66A85.49,85.49,0,0,0,260.55,170c10.34,3.9,23.26-3.07,26.37-8.76.13-1.07-.67-8.92-1.16-14.06,1.82-5.76,2.3-9.23,1.53-12.51-1.43-6.1-7-10.92-9.41-10Z" style="opacity: 0.1; transform-origin: 273.817px 147.845px;" class="animable"></path></g><path d="M275.72,119.23l-4.36,1.19c-6.08,1.65-11-2.68-11.05-9.69h0c0-8.4,5.85-16.82,13.13-18.8h0c7.27-2,13.2,3.21,13.23,11.61h0C286.7,110.54,281.79,117.57,275.72,119.23Z" style="fill: rgb(38, 50, 56); transform-origin: 273.49px 106.137px;" id="elqb71m1b0q5l" class="animable"></path><path d="M270,89.27c1.88,2.69-.11,5.41-2.88,8.33s-5.27,4.92-7.15,2.23-.85-6.55,1.92-9.46S268.14,86.57,270,89.27Z" style="fill: rgb(38, 50, 56); transform-origin: 264.876px 94.3737px;" id="elpocrrakosun" class="animable"></path><path d="M263.24,101l-2.79,3.13a2.28,2.28,0,0,1,.3-2.87A1.63,1.63,0,0,1,263.24,101Z" style="fill: rgb(38, 50, 56); transform-origin: 261.658px 102.334px;" id="elereg8rztujs" class="animable"></path><path d="M281.58,96.52c1.4.57,3.13,4.14,3,12.66-.12,7.21-2.13,9.54-3.14,10.32s-3,1-4.87,1.16l.11,4.34s3.2,2.17,3,4.19-4.43,4.08-6.89,2.82a20.74,20.74,0,0,1-4.44-3.23.37.37,0,0,1-.1-.27V117.64s-1.12,1.55-3,.16a4.08,4.08,0,0,1-.89-5.43c1.21-1.76,3.47-2,4.34-.18,0,0,3-.7,7-4.36A18.22,18.22,0,0,0,281.58,96.52Z" style="fill: rgb(177, 102, 104); transform-origin: 274.142px 114.458px;" id="elv9d6dnzcy4" class="animable"></path><path d="M277,109.18a1.23,1.23,0,0,1-.74,1.18c-.43.14-.8-.16-.82-.67a1.2,1.2,0,0,1,.73-1.18C276.56,108.36,276.92,108.66,277,109.18Z" style="fill: rgb(38, 50, 56); transform-origin: 276.219px 109.433px;" id="elua9or4vt56a" class="animable"></path><path d="M277.85,115.29l1.82.18a1.25,1.25,0,0,1-1.18,1.07C278,116.49,277.71,115.94,277.85,115.29Z" style="fill: rgb(154, 74, 77); transform-origin: 278.742px 115.915px;" id="el6nmeoxwkswo" class="animable"></path><path d="M284,104.75l-1.59-.84c.29-.6.87-.9,1.31-.67A1.15,1.15,0,0,1,284,104.75Z" style="fill: rgb(38, 50, 56); transform-origin: 283.289px 103.956px;" id="elcu9m8imabc" class="animable"></path><path d="M283.8,107a1.21,1.21,0,0,1-.73,1.18c-.44.14-.81-.16-.83-.67a1.23,1.23,0,0,1,.74-1.18C283.41,106.13,283.78,106.43,283.8,107Z" style="fill: rgb(38, 50, 56); transform-origin: 283.02px 107.241px;" id="el5h6fhib9hbw" class="animable"></path><polygon points="280.15 106.96 280.12 112.85 282.6 111.29 280.15 106.96" style="fill: rgb(154, 74, 77); transform-origin: 281.36px 109.905px;" id="eluxg7hpaf4ge" class="animable"></polygon><path d="M287.07,105.62c-.21-1.41-1.6-2-3.08-1.57l-.14,0a4.29,4.29,0,0,0-2.51,2.27,1.9,1.9,0,0,0-1.48,0,3.79,3.79,0,0,0-1.29.84,2.4,2.4,0,0,0-2.65-.59l-.14,0a4.2,4.2,0,0,0-2.77,3.13l-4.86,1.6a2.46,2.46,0,0,1,.33.37l4.5-1.49a2.1,2.1,0,0,0,2.95,2l.43-.14a3.87,3.87,0,0,0,2.64-3.92,2.19,2.19,0,0,0-.2-.61,2.87,2.87,0,0,1,1.11-.75,1.39,1.39,0,0,1,1.24,0,3.12,3.12,0,0,0-.11.67,2.11,2.11,0,0,0,3,2.13l.43-.14A3.85,3.85,0,0,0,287.07,105.62Zm-8.54,3.48a3.42,3.42,0,0,1-2.28,2.6l-.26.09a1.82,1.82,0,0,1-2.48-1.08,3.16,3.16,0,0,1,2.15-3.5l.43-.14A1.78,1.78,0,0,1,278.53,109.1Zm8.07-2.6a3.41,3.41,0,0,1-2.28,2.6l-.26.09a1.8,1.8,0,0,1-2.47-1.08,3.15,3.15,0,0,1,2.14-3.5l.43-.14A1.77,1.77,0,0,1,286.6,106.5Z" style="fill: rgb(228, 24, 23); transform-origin: 277.612px 108.136px;" id="el2jufftruons" class="animable"></path><path d="M276.57,120.66c-2,.25-6.12,0-6.77-1.7a3.58,3.58,0,0,0,1.45,2c1.24.88,5.36,1.14,5.36,1.14Z" style="fill: rgb(154, 74, 77); transform-origin: 273.205px 120.53px;" id="elosy4jj11pa8" class="animable"></path><g id="elyra8ayga3ks"><path d="M271.33,168.38c-3.39,0-5.55-3.41-4.65-7.55,0-.16.07-.29.1-.4.67-2,2.1-2.17,2.1-2.17h0c-1.34-.66-2-2.25-2.29-4L265,146.22a12.16,12.16,0,0,1,.31-4.27l-4.15-4.44-.77.82a13.46,13.46,0,0,0,.17,7.39l4.12,12.66A78.63,78.63,0,0,0,260.55,170c7.62,2.87,16.64-.16,22.1-4.23A28.25,28.25,0,0,1,271.33,168.38Z" style="opacity: 0.1; transform-origin: 271.302px 154.32px;" class="animable"></path></g></g><path d="M250,166.66c4.6-22.93,7.5-32.82,12.54-36.31a16.56,16.56,0,0,1,3.41-1.69c.69.26.76,1.78.9,2.75a24.21,24.21,0,0,1-2.62,13.13s-6.71,18.14-7.78,24.24c-.94,5.33-2,12-1.94,16.38a2.74,2.74,0,0,0,.74,1.93c1.23,1.21,1.23,2.44,2,3.93.62,1.16,1.3,1.47,1.11,1.83a1.59,1.59,0,0,1-2,.71,5.59,5.59,0,0,1-1.52-1.29,16.16,16.16,0,0,0,1.21,4.38c1.37,3.22,1,5.14-3.15,5-2.63-.09-4.28-2.18-4.67-9.36a64.22,64.22,0,0,1-.07-8.05C248.7,177.16,249.1,171,250,166.66Z" style="fill: rgb(177, 102, 104); transform-origin: 257.5px 165.159px;" id="elngirmxma" class="animable"></path><path d="M266.32,128.43a7.81,7.81,0,0,0-6.68,3.69,41.83,41.83,0,0,0-3.52,8.37c.81,1.69,5.3,6.11,7.48,6.66a32.49,32.49,0,0,0,1.92-4.49C266.84,138.93,268.9,132.55,266.32,128.43Z" style="fill: rgb(69, 90, 100); transform-origin: 261.837px 137.79px;" id="els4rrx0p2js" class="animable"></path></g><path d="M296.3,142l-.06-2.93-3.48-2h0a1.11,1.11,0,0,0-1.11.11l-48.49,28a3.49,3.49,0,0,0-1.57,2.73v14.44a1.1,1.1,0,0,0,.45,1h0l3.49,2v-3.46l46.11-26.58a3.45,3.45,0,0,0,1.57-2.72V142Z" style="fill: rgb(224, 224, 224); transform-origin: 268.942px 161.16px;" id="eltxv337jgqgg" class="animable"></path><path d="M296.24,139.08l-3.48-2h0a1.11,1.11,0,0,0-1.11.11l-48.49,28a3.05,3.05,0,0,0-1,1L247.1,169l46.12-26Z" style="fill: rgb(250, 250, 250); transform-origin: 269.2px 152.99px;" id="ellhrgxneny2k" class="animable"></path><path d="M246.64,167.18l48.48-28c.87-.5,1.57-.09,1.57.91v14.49a3.47,3.47,0,0,1-1.57,2.73l-48.48,27.94c-.87.5-1.57.09-1.57-.91V169.91A3.47,3.47,0,0,1,246.64,167.18Z" style="fill: rgb(240, 240, 240); transform-origin: 270.88px 162.215px;" id="el4bqei67iua4" class="animable"></path><g id="freepik--stars--inject-15--inject-140" class="animable" style="transform-origin: 270.909px 162.484px;"><path d="M251.25,168.53l.89,1.88a.21.21,0,0,0,.28.11l2-.76c.31-.12.43.32.21.75l-1.43,2.68a.89.89,0,0,0-.11.51l.34,2.43c.05.38-.28.89-.56.85l-1.76-.22a.46.46,0,0,0-.36.21L249,179.23c-.28.35-.61.23-.56-.22l.34-2.82a.4.4,0,0,0-.11-.38l-1.43-1c-.22-.17-.1-.75.22-1l2-1.53a.94.94,0,0,0,.29-.44l.88-2.89C250.71,168.47,251.11,168.23,251.25,168.53Z" style="fill: rgb(228, 24, 23); transform-origin: 250.935px 173.916px;" id="elvnfz8kcx2gn" class="animable"></path><path d="M261.24,162.82l.88,1.87a.21.21,0,0,0,.29.11l2-.75c.31-.12.44.32.21.74l-1.43,2.68a.89.89,0,0,0-.11.51l.34,2.43c.05.38-.27.89-.55.86l-1.77-.22a.41.41,0,0,0-.35.2L259,173.51c-.28.36-.6.23-.55-.22l.34-2.81a.42.42,0,0,0-.11-.39l-1.43-1c-.23-.16-.1-.75.21-1l2-1.52a.91.91,0,0,0,.29-.45l.88-2.89C260.69,162.75,261.1,162.52,261.24,162.82Z" style="fill: rgb(228, 24, 23); transform-origin: 260.935px 168.202px;" id="elm3kosholg1g" class="animable"></path><path d="M271.22,157.1l.88,1.87a.22.22,0,0,0,.29.12l2-.76c.32-.12.44.32.22.75l-1.43,2.67a.93.93,0,0,0-.11.52l.34,2.42c.05.39-.28.89-.56.86l-1.76-.22a.44.44,0,0,0-.36.21l-1.76,2.25c-.28.36-.61.23-.56-.21l.34-2.82a.42.42,0,0,0-.11-.39l-1.43-1c-.22-.16-.1-.75.22-1l2-1.52a.94.94,0,0,0,.29-.44l.88-2.9C270.68,157,271.08,156.8,271.22,157.1Z" style="fill: rgb(228, 24, 23); transform-origin: 270.91px 162.479px;" id="eljehw068bt2n" class="animable"></path><path d="M281.21,151.38l.88,1.88a.21.21,0,0,0,.29.11l2-.76c.31-.12.44.32.21.75L283.13,156a.89.89,0,0,0-.11.51l.34,2.43c.05.38-.27.89-.55.85l-1.77-.21a.41.41,0,0,0-.35.2l-1.77,2.26c-.28.35-.61.23-.55-.22l.33-2.81a.39.39,0,0,0-.11-.39l-1.42-1c-.23-.17-.1-.75.21-1l2-1.53a.88.88,0,0,0,.29-.44l.88-2.89C280.66,151.32,281.07,151.09,281.21,151.38Z" style="fill: rgb(228, 24, 23); transform-origin: 280.88px 156.747px;" id="eluu7jdx9l8a" class="animable"></path><path d="M291.19,145.67l.88,1.87a.21.21,0,0,0,.29.11l2-.75c.32-.12.44.32.21.74l-1.42,2.68a.91.91,0,0,0-.11.52l.33,2.42c.06.39-.27.89-.55.86L291,153.9a.44.44,0,0,0-.36.2l-1.76,2.26c-.28.36-.61.23-.56-.22l.34-2.81a.42.42,0,0,0-.11-.39l-1.43-1c-.22-.16-.1-.75.21-1l2-1.52a.89.89,0,0,0,.28-.45l.89-2.89C290.65,145.6,291.05,145.37,291.19,145.67Z" style="fill: rgb(224, 224, 224); transform-origin: 290.848px 151.052px;" id="el26iuupvqbyc" class="animable"></path></g><path d="M230.61,211.87l-.06-2.93-3.48-2h0a1.09,1.09,0,0,0-1.11.11l-48.48,28a3.46,3.46,0,0,0-1.57,2.72v61.66a1.13,1.13,0,0,0,.44,1h0l3.48,2V299L226,272.41a3.48,3.48,0,0,0,1.58-2.72V211.87Z" style="fill: rgb(224, 224, 224); transform-origin: 203.258px 254.633px;" id="eldm6x9obwdne" class="animable"></path><path d="M230.55,208.94l-3.48-2h0a1.09,1.09,0,0,0-1.11.11l-48.48,28a3.12,3.12,0,0,0-1,1l4.92,2.85,46.13-26.05Z" style="fill: rgb(250, 250, 250); transform-origin: 203.515px 222.868px;" id="el6xb0ahacijy" class="animable"></path><path d="M181,237l48.49-28c.87-.5,1.57-.1,1.57.91v61.71a3.46,3.46,0,0,1-1.57,2.72L181,302.33c-.87.5-1.58.1-1.58-.91V239.76A3.49,3.49,0,0,1,181,237Z" style="fill: rgb(240, 240, 240); transform-origin: 205.24px 255.665px;" id="elkogbc9g0pb" class="animable"></path><g style="clip-path: url(&quot;#freepik--clip-path-3--inject-15--inject-140&quot;); transform-origin: 210.297px 287.612px;" id="elwhuo25gaj4b" class="animable"><path d="M219.53,298.91c-5.84-25.63-12.87-30.28-6.63-35.62,7.27-1.11,10.08,1.17,11.2,8.69.55,3.67,1.74,19,3.23,24.78,1.31,5.05,3.08,11.3,5,14.91A2.14,2.14,0,0,0,234,312.8c1.83.26,2.36,1.29,3.85,2,1.17.6,2,.45,2,.86a2.27,2.27,0,0,1-1.84,1.81,6.23,6.23,0,0,1-2.18-.14,12,12,0,0,0,3.18,2.92c2.86,1.85,3.34,3.66-1.2,6.08-2.85,1.51-5.51.77-9-5a47.07,47.07,0,0,1-3.55-6.68C222.72,308.45,220.47,303,219.53,298.91Z" style="fill: rgb(255, 168, 167); transform-origin: 225.827px 295.017px;" id="elvjvgnkysga" class="animable"></path><path d="M212.9,263.29s3.76-1.13,6.53,0,5,2.72,5.73,13.57l-5.63,3.24Z" style="fill: rgb(38, 50, 56); transform-origin: 219.03px 271.444px;" id="elm6g4fnrmlpp" class="animable"></path><path d="M188.66,266.31h0a9.23,9.23,0,0,0,9.23-9.23V244.29h0a9.24,9.24,0,0,0-9.23,9.23Z" style="fill: rgb(228, 24, 23); transform-origin: 193.275px 255.3px;" id="el2vji15wl9r4" class="animable"></path><g id="elkmav2c60il"><path d="M188.66,266.31h0a9.23,9.23,0,0,0,9.23-9.23V244.29h0a9.24,9.24,0,0,0-9.23,9.23Z" style="opacity: 0.4; transform-origin: 193.275px 255.3px;" class="animable"></path></g><path d="M211.08,259.43a11.81,11.81,0,0,1-15.22-11.31h0c0-8.4,5.9-16.79,13.18-18.74l1-.26c7.28-2,13.17,3.28,13.17,11.68v2.34a17,17,0,0,1-12.11,16.29Z" style="fill: rgb(228, 24, 23); transform-origin: 209.535px 244.315px;" id="elm96ex9mnj2p" class="animable"></path><g id="el1kpnpdbqdn1"><path d="M211.08,259.43a11.81,11.81,0,0,1-15.22-11.31h0c0-8.4,5.9-16.79,13.18-18.74l1-.26c7.28-2,13.17,3.28,13.17,11.68v2.34a17,17,0,0,1-12.11,16.29Z" style="opacity: 0.3; transform-origin: 209.535px 244.315px;" class="animable"></path></g><path d="M200.39,232.86c-.71-.71-1.92-.44-2.7.59l1.44,1.43a1.81,1.81,0,0,0-1,.19,3,3,0,0,0-1.48,3l3.75-1.91a1.6,1.6,0,0,0-.08-.26A2.46,2.46,0,0,0,200.39,232.86Z" style="fill: rgb(228, 24, 23); transform-origin: 198.753px 235.267px;" id="el3rdzm3cadv5" class="animable"></path><g id="el048jlv7pcbro"><path d="M200.39,232.86c-.71-.71-1.92-.44-2.7.59l1.44,1.43a1.81,1.81,0,0,0-1,.19,3,3,0,0,0-1.48,3l3.75-1.91a1.6,1.6,0,0,0-.08-.26A2.46,2.46,0,0,0,200.39,232.86Z" style="opacity: 0.3; transform-origin: 198.753px 235.267px;" class="animable"></path></g><path d="M204.15,265.92s-8,1.89-8.93,2.64c5.77,6.2,1.05,19.27,1.05,19.27L199.48,299a64.64,64.64,0,0,0-6.59,15.06c-1.91,6.34-3.13,11.11-4.61,30.2,7.58,6,32.83-.56,39.25-12,0,0-2-12.52-4.52-24.15-1.87-8.49-3.71-13.08-3.26-16.14,3.39-12.93,3.65-16.15,3.05-18.67-1.69-7.1-8.35-10.42-10-10Z" style="fill: rgb(55, 71, 79); transform-origin: 207.905px 304.896px;" id="elexeemclg988" class="animable"></path><path d="M218.05,233.79c1.44.6,3.23,4.31,3,13.15-.15,7.49-2.24,9.89-3.29,10.7s-3.07,1-5,1.18v4.47s2.72,2.92,2.55,5-3.93,3.59-6.48,2.27-4.69-4.65-4.69-4.65l0-10.29s-1.16,1.61-3.12.15a4.23,4.23,0,0,1-.91-5.63c1.26-1.82,3.6-2.05,4.5-.17a13.35,13.35,0,0,1,5.62-6.73C214.39,240.61,216.62,238.23,218.05,233.79Z" style="fill: rgb(255, 168, 167); transform-origin: 210.245px 252.423px;" id="el3ka3lnscgz2" class="animable"></path><path d="M213.9,247a1.27,1.27,0,0,1-.77,1.22c-.45.14-.83-.17-.85-.7a1.26,1.26,0,0,1,.77-1.22C213.49,246.15,213.88,246.47,213.9,247Z" style="fill: rgb(38, 50, 56); transform-origin: 213.09px 247.258px;" id="elci8wkn1je9h" class="animable"></path><path d="M214.12,253.25l1.88.19a1.33,1.33,0,0,1-1.23,1.11C214.25,254.5,214,253.92,214.12,253.25Z" style="fill: rgb(242, 143, 143); transform-origin: 215.045px 253.9px;" id="eljds4iu6vh5c" class="animable"></path><path d="M220.55,242.34l-1.64-.88c.3-.62.91-.92,1.36-.68A1.18,1.18,0,0,1,220.55,242.34Z" style="fill: rgb(38, 50, 56); transform-origin: 219.82px 241.519px;" id="el8in1yp8cmty" class="animable"></path><path d="M211.54,245.45l1.64-1.76c-.3-.46-.91-.44-1.36.05A1.48,1.48,0,0,0,211.54,245.45Z" style="fill: rgb(38, 50, 56); transform-origin: 212.282px 244.404px;" id="elohnm46cgkrf" class="animable"></path><path d="M220.17,244.64a1.26,1.26,0,0,1-.77,1.22c-.44.14-.83-.17-.85-.7a1.26,1.26,0,0,1,.77-1.22C219.77,243.8,220.15,244.11,220.17,244.64Z" style="fill: rgb(38, 50, 56); transform-origin: 219.36px 244.9px;" id="elsguq4kc72a" class="animable"></path><polygon points="216.34 245.13 216.47 250.73 219.04 249.12 216.34 245.13" style="fill: rgb(242, 143, 143); transform-origin: 217.69px 247.93px;" id="el83aeuxdskwx" class="animable"></polygon><path d="M212.77,258.82c-2.08.24-6.34,0-7-1.8a3.68,3.68,0,0,0,1.5,2.08c1.27.92,5.51,1.21,5.51,1.21Z" style="fill: rgb(242, 143, 143); transform-origin: 209.275px 258.665px;" id="ele2a4yqjtqmg" class="animable"></path><path d="M181.46,308.61c4.94-24.64,8.35-36.27,13.76-40.05,2.71.28,3.53,3.88,3.81,5.94a23.35,23.35,0,0,1-2.76,13.33s-6.73,16.5-7.88,23.05c-1,5.73-2.15,12.9-2.09,17.6a2.94,2.94,0,0,0,.8,2.07c1.32,1.3,1.33,2.63,2.18,4.22.67,1.25,1.4,1.59,1.19,2a1.7,1.7,0,0,1-2.16.76,5.64,5.64,0,0,1-1.64-1.38,17.67,17.67,0,0,0,1.3,4.71c1.48,3.45,1.12,5.51-3.39,5.35-2.82-.11-4.59-2.35-5-10.06a69.84,69.84,0,0,1-.08-8.65C180.09,319.88,180.53,313.24,181.46,308.61Z" style="fill: rgb(255, 168, 167); transform-origin: 189.265px 307.389px;" id="elz7b9ljmx1q9" class="animable"></path><path d="M196.12,268.18c-2.21.77-4.36,2.95-6.41,7.69s-4.48,14.57-4.48,14.57,4.34,4.58,9.13,3.21c0,0,3.72-7.74,4.66-11.79S200.69,270.52,196.12,268.18Z" style="fill: rgb(38, 50, 56); transform-origin: 192.476px 281.043px;" id="elf1uaezvup55" class="animable"></path></g><path d="M230.61,285.12l-.06-2.93-3.48-2h0a1.09,1.09,0,0,0-1.11.11l-48.48,28a3.46,3.46,0,0,0-1.57,2.72v14.44a1.13,1.13,0,0,0,.44,1h0l3.48,2V325L226,298.44a3.48,3.48,0,0,0,1.58-2.72v-10.6Z" style="fill: rgb(224, 224, 224); transform-origin: 203.258px 304.273px;" id="elhr2p52tgi6e" class="animable"></path><path d="M230.55,282.19l-3.48-2h0a1.09,1.09,0,0,0-1.11.11l-48.48,28a3.12,3.12,0,0,0-1,1l4.92,2.85,46.13-26Z" style="fill: rgb(250, 250, 250); transform-origin: 203.515px 296.118px;" id="elxtged9i3md" class="animable"></path><path d="M181,310.29l48.49-28c.87-.5,1.57-.1,1.57.91V297.7a3.46,3.46,0,0,1-1.57,2.72L181,328.36c-.87.51-1.58.1-1.58-.9V313A3.49,3.49,0,0,1,181,310.29Z" style="fill: rgb(240, 240, 240); transform-origin: 205.24px 305.327px;" id="elwrya1t9i71r" class="animable"></path><g id="freepik--stars--inject-15--inject-140" class="animable" style="transform-origin: 205.225px 305.59px;"><path d="M185.57,311.64l.88,1.87a.22.22,0,0,0,.29.12l2-.76c.31-.12.44.32.21.75l-1.42,2.67a.85.85,0,0,0-.11.52l.33,2.42c.06.39-.27.9-.55.86l-1.77-.22a.45.45,0,0,0-.35.21l-1.76,2.25c-.29.36-.61.23-.56-.21l.34-2.82a.42.42,0,0,0-.11-.39l-1.43-1c-.23-.16-.1-.75.21-1l2-1.52a.82.82,0,0,0,.29-.44l.88-2.89C185,311.58,185.43,311.34,185.57,311.64Z" style="fill: rgb(228, 24, 23); transform-origin: 185.255px 317.023px;" id="elyzvul2wwd0j" class="animable"></path><path d="M195.55,305.92l.89,1.88a.2.2,0,0,0,.28.11l2-.76c.31-.12.43.32.21.75l-1.43,2.68a.89.89,0,0,0-.11.51l.34,2.43c0,.38-.28.89-.56.85l-1.76-.21a.42.42,0,0,0-.36.2l-1.76,2.26c-.28.35-.61.23-.55-.22l.33-2.81a.41.41,0,0,0-.11-.39l-1.42-1c-.23-.17-.11-.75.21-1l2-1.52a1,1,0,0,0,.29-.45l.88-2.89C195,305.86,195.41,305.63,195.55,305.92Z" style="fill: rgb(228, 24, 23); transform-origin: 195.232px 311.308px;" id="el8w8g4rp9x7s" class="animable"></path><path d="M205.54,300.21l.88,1.87a.21.21,0,0,0,.29.11l2-.75c.31-.12.44.32.21.74l-1.43,2.68a.91.91,0,0,0-.11.52l.34,2.42c.06.39-.27.89-.55.86l-1.77-.22a.43.43,0,0,0-.35.2l-1.77,2.26c-.28.36-.6.23-.55-.22l.34-2.81a.42.42,0,0,0-.11-.39l-1.43-1c-.23-.16-.1-.75.21-1l2-1.52a.84.84,0,0,0,.29-.45l.88-2.89C205,300.14,205.4,299.91,205.54,300.21Z" style="fill: rgb(228, 24, 23); transform-origin: 205.225px 305.592px;" id="elhmkhba1yc9e" class="animable"></path><path d="M215.52,294.49l.88,1.87a.22.22,0,0,0,.29.12l2-.76c.32-.12.44.32.22.75l-1.43,2.68a.88.88,0,0,0-.11.51l.34,2.42c0,.39-.28.9-.56.86l-1.76-.22a.46.46,0,0,0-.36.21l-1.76,2.25c-.28.36-.61.23-.56-.21l.34-2.82a.4.4,0,0,0-.11-.38l-1.43-1c-.22-.16-.1-.75.22-1l2-1.52a.94.94,0,0,0,.29-.44l.88-2.89C215,294.43,215.38,294.19,215.52,294.49Z" style="fill: rgb(228, 24, 23); transform-origin: 215.21px 299.873px;" id="elgt58stevqsu" class="animable"></path><path d="M215.36,302.72l1.76.22c.28,0,.61-.47.56-.86l-.34-2.42a.88.88,0,0,1,.11-.51l1.43-2.68c.22-.43.1-.87-.22-.75l-2,.76a.22.22,0,0,1-.29-.12l-.88-1.87c-.07-.15-.2-.16-.34-.09v8.37A.31.31,0,0,1,215.36,302.72Z" style="fill: rgb(224, 224, 224); transform-origin: 217.071px 298.649px;" id="elt6lsur1s58" class="animable"></path><path d="M225.51,288.77l.88,1.88a.21.21,0,0,0,.29.11l2-.76c.31-.12.44.32.21.75l-1.43,2.68a.89.89,0,0,0-.11.51l.34,2.43c.05.38-.27.89-.55.85l-1.77-.21a.41.41,0,0,0-.35.2l-1.77,2.26c-.28.35-.61.23-.55-.22l.34-2.81a.41.41,0,0,0-.11-.39l-1.43-1c-.23-.17-.1-.75.21-1l2-1.52a1,1,0,0,0,.29-.45l.88-2.89C225,288.71,225.37,288.48,225.51,288.77Z" style="fill: rgb(224, 224, 224); transform-origin: 225.195px 294.158px;" id="elluuosiqi4u" class="animable"></path></g><path d="M230.61,106.64l-.06-2.93-3.48-2h0a1.11,1.11,0,0,0-1.11.11l-48.48,28a3.47,3.47,0,0,0-1.57,2.73v61.66a1.11,1.11,0,0,0,.44,1h0l3.48,2v-3.46L226,167.18a3.46,3.46,0,0,0,1.58-2.72V106.64Z" style="fill: rgb(224, 224, 224); transform-origin: 203.257px 149.41px;" id="elx4vjt6qb7q" class="animable"></path><path d="M230.55,103.71l-3.48-2h0a1.11,1.11,0,0,0-1.11.11l-48.48,28a3.05,3.05,0,0,0-1,1l4.92,2.84,46.13-26Z" style="fill: rgb(250, 250, 250); transform-origin: 203.515px 117.635px;" id="elzaxza80cdh9" class="animable"></path><path d="M181,131.81l48.49-28c.87-.5,1.57-.09,1.57.91v61.71a3.47,3.47,0,0,1-1.57,2.73L181,197.11c-.87.5-1.58.09-1.58-.91V134.54A3.51,3.51,0,0,1,181,131.81Z" style="fill: rgb(240, 240, 240); transform-origin: 205.24px 150.46px;" id="el1alebtj3qpd" class="animable"></path><g style="clip-path: url(&quot;#freepik--clip-path-4--inject-15--inject-140&quot;); transform-origin: 220.383px 181.001px;" id="elh1cl9c7cd3d" class="animable"><g id="freepik--character-boy--inject-15--inject-140" class="animable" style="transform-origin: 224.98px 170.367px;"><path d="M214.83,157.89s3.81-1.18,7,3.83c2.15,3.4,9.69,16.33,9.69,16.33s14.67-7.78,15.5-8.8.77-3.08.9-4.19a12.36,12.36,0,0,0-.57-4.12c-.17-1.17,1.5-1.23,2.33.38.61,1.19.66,2.54,1.18,2.55a14.57,14.57,0,0,0,2.06-1.75c.91-1,2.55-2.66,3.79-2.43a1.08,1.08,0,0,1,.83.89,6,6,0,0,0,.47,2,3.18,3.18,0,0,1,.49.79,7,7,0,0,1,0,1.29c0,.61.64.87.73,1.47a11.17,11.17,0,0,1-.16,1.39c0,.3.1.56.1.85a2.83,2.83,0,0,1-.76,1.63,17.22,17.22,0,0,1-4.35,3.65c-1.34.87-3.1,1.65-4.62,2.47s-18.8,14.09-21.1,12.52-13.84-18.38-13.84-18.38C211.84,162.83,214.83,157.89,214.83,157.89Z" style="fill: rgb(255, 168, 167); transform-origin: 236.314px 173.269px;" id="elrc3kfasgllq" class="animable"></path><path d="M208.14,158s4.2-1.7,6.92-1.53,4.75,1,6.74,4.17c2.67,4.29,7.09,11.69,7.09,11.69a21.4,21.4,0,0,1-8.58,9.18l-8.14-12.27Z" style="fill: rgb(228, 24, 23); transform-origin: 218.515px 168.984px;" id="elsriry0j059n" class="animable"></path><g id="eld9ch0hzoqs"><g style="opacity: 0.25; transform-origin: 218.515px 168.984px;" class="animable"><path d="M208.14,158s4.2-1.7,6.92-1.53,4.75,1,6.74,4.17c2.67,4.29,7.09,11.69,7.09,11.69a21.4,21.4,0,0,1-8.58,9.18l-8.14-12.27Z" id="elhggfmao4wtu" class="animable" style="transform-origin: 218.515px 168.984px;"></path></g></g><g id="freepik--character-boy--inject-15--inject-140" class="animable" style="transform-origin: 205.505px 170.367px;"><path d="M194.81,165.42a9.16,9.16,0,0,0-3,4.37,21.59,21.59,0,0,0-.9,6.4v13.95l-.18,26.39c8.85,3,20.11.36,29.55-10.13,0,0-.53-33.77-.53-39.32,0-.25,0-.5,0-.75-.34-7.83-7.09-11.46-13.75-7.7l-5.58,3.15-5.62,3.64Z" style="fill: rgb(69, 90, 100); transform-origin: 205.505px 187.413px;" id="el8nzj2c890fd" class="animable"></path><path d="M200.87,136.72c0,5.95,4.18,9.65,9.33,8.27s9.33-7.32,9.33-13.27-4.44-6-9.6-4.58S200.87,130.77,200.87,136.72Z" style="fill: rgb(38, 50, 56); transform-origin: 210.2px 135.826px;" id="ele3u4ck4cxcl" class="animable"></path><path d="M196,146.13s1.38,7.09,1.93,8.17a2.1,2.1,0,0,0,1.69,1.12l-.1-5.22Z" style="fill: rgb(38, 50, 56); transform-origin: 197.81px 150.775px;" id="elznc8tmzauzo" class="animable"></path><path d="M197.73,135a3.84,3.84,0,0,0-2.64,1.77c-1.13,1.64-.5,5.66.91,9.37l2.59-.35Z" style="fill: rgb(38, 50, 56); transform-origin: 196.549px 140.57px;" id="el9jw8upjjoo7" class="animable"></path><path d="M199.37,145.58c-.52.5-1.26-.46-1.9-1.06s-2.73-1.1-3.78,1.72.92,5.75,2.57,5.91c2.84.27,3.26-2,3.26-2l.1,12.11c4.76,5,13.09-.9,9.35-3.14v-3.59a16.31,16.31,0,0,0,3.82-.8c2.09-.93,3.4-3.18,4-6,1-4.46,1.4-7.94.54-15.95-.94-8.77-10-6.43-14.94-1.54S199.37,145.58,199.37,145.58Z" style="fill: rgb(255, 189, 167); transform-origin: 205.598px 145.55px;" id="el9fe8i2pqco" class="animable"></path><path d="M199.37,146.59c-.26.07-1.26-1.56-1.9-2.07-.9-.7.26-9.53.26-9.53-1-2.28.87-5.72,2.87-7.12a11.58,11.58,0,0,1,4.73-1.73c1.43-.27,2.86-.47,4.28-.6a38.84,38.84,0,0,0,5.19-.62,11.59,11.59,0,0,0,4.1-1.76c.42-.29.84,0,.71.55a8,8,0,0,1-.49,1.36,12.92,12.92,0,0,1-1.38,2.43,20.33,20.33,0,0,1-2,2.22c-3.84,3.64-8.69,4.63-13,5.1-1,.1-1.17,1.24-1.69,4.32C200.62,141.85,200.25,146.33,199.37,146.59Z" style="fill: rgb(38, 50, 56); transform-origin: 208.381px 134.819px;" id="elk2otab9esqa" class="animable"></path><path d="M197.73,135.65l-3.14-1.11c.45-1.15,1.51-1.85,2.38-1.54S198.18,134.49,197.73,135.65Z" style="fill: rgb(38, 50, 56); transform-origin: 196.259px 134.288px;" id="el9cpraqxnha" class="animable"></path><path d="M209,155.58s-4.66.16-6.29-.4a4,4,0,0,1-2.25-2,6.93,6.93,0,0,0,1.28,2.69C202.89,157.34,209,157,209,157Z" style="fill: rgb(242, 144, 119); transform-origin: 204.73px 155.107px;" id="elakjajnjearc" class="animable"></path><path d="M207.84,142a1.45,1.45,0,0,1-.93,1.37c-.52.14-.94-.25-.94-.87a1.44,1.44,0,0,1,.94-1.37C207.42,141,207.84,141.35,207.84,142Z" style="fill: rgb(38, 50, 56); transform-origin: 206.905px 142.251px;" id="elrjmmg6ikkbi" class="animable"></path><path d="M206.34,137.9l-2,1.81a1.77,1.77,0,0,1,.47-2A.92.92,0,0,1,206.34,137.9Z" style="fill: rgb(38, 50, 56); transform-origin: 205.274px 138.547px;" id="el8oll2sejvk6" class="animable"></path><path d="M208.54,149.22l2.13.35a1.46,1.46,0,0,1-1.45,1.2C208.63,150.68,208.33,150,208.54,149.22Z" style="fill: rgb(242, 144, 119); transform-origin: 209.572px 149.995px;" id="elmjac5kvv1k" class="animable"></path><path d="M216.4,136.16,214.58,135c.37-.7,1.08-1,1.58-.71A1.42,1.42,0,0,1,216.4,136.16Z" style="fill: rgb(38, 50, 56); transform-origin: 215.613px 135.17px;" id="el4k2pkxslbil" class="animable"></path><path d="M215.6,139.58a1.42,1.42,0,0,1-.93,1.36c-.52.14-.94-.25-.94-.87a1.42,1.42,0,0,1,.94-1.36C215.18,138.57,215.6,139,215.6,139.58Z" style="fill: rgb(38, 50, 56); transform-origin: 214.665px 139.826px;" id="eljvi0vm521si" class="animable"></path><polygon points="210.99 139.95 211.1 146.45 214.44 144.71 210.99 139.95" style="fill: rgb(242, 144, 119); transform-origin: 212.715px 143.2px;" id="elxw02zgw10cn" class="animable"></polygon></g></g><path d="M181.65,205.33c2-26.89,5.94-36.53,12.49-39.36,2.26,1.69,2.81,9.59.44,15.6,0,0-5.08,17.92-5.37,24a97.31,97.31,0,0,0,1,17,2.41,2.41,0,0,0,1,1.68c1.43.93,1.34,2.29,2.36,3.57.81,1,1.55,1.18,1.4,1.55a1.79,1.79,0,0,1-2,1.07,5.23,5.23,0,0,1-1.76-.95,14.43,14.43,0,0,0,1.85,4c1.86,2.85,1.77,4.77-2.6,5.41-2.74.41-4.74-1.29-6.12-8.16-.39-2-1.33-5.54-1.72-8.1A79.11,79.11,0,0,1,181.65,205.33Z" style="fill: rgb(255, 189, 167); transform-origin: 188.826px 202.464px;" id="elft1t09surk9" class="animable"></path><path d="M196,164.65s-4.77,1.67-7.18,5.58-4.71,10.2-6.32,21.36c0,0,3,4.12,10.89.69,0,0,3.43-14.24,3.74-19.87C197.46,166.27,196,164.65,196,164.65Z" style="fill: rgb(228, 24, 23); transform-origin: 189.839px 179.147px;" id="elklb37eq5eac" class="animable"></path><g id="elny0b2u724ui"><path d="M196,164.65s-4.77,1.67-7.18,5.58-4.71,10.2-6.32,21.36c0,0,3,4.12,10.89.69,0,0,3.43-14.24,3.74-19.87C197.46,166.27,196,164.65,196,164.65Z" style="opacity: 0.15; transform-origin: 189.839px 179.147px;" class="animable"></path></g></g><path d="M230.61,179.89l-.06-2.93-3.48-2h0a1.11,1.11,0,0,0-1.11.11l-48.48,28a3.47,3.47,0,0,0-1.57,2.73v14.44a1.11,1.11,0,0,0,.44,1h0l3.48,2v-3.46L226,193.22a3.49,3.49,0,0,0,1.58-2.73v-10.6Z" style="fill: rgb(224, 224, 224); transform-origin: 203.257px 199.05px;" id="elzp8mtqrthpq" class="animable"></path><path d="M230.55,177l-3.48-2h0a1.11,1.11,0,0,0-1.11.11l-48.48,28a3.05,3.05,0,0,0-1,1l4.92,2.84,46.13-26Z" style="fill: rgb(250, 250, 250); transform-origin: 203.515px 190.925px;" id="elddmqmdfn6cm" class="animable"></path><path d="M181,205.06l48.49-28c.87-.5,1.57-.09,1.57.91v14.49a3.47,3.47,0,0,1-1.57,2.73L181,223.14c-.87.5-1.58.09-1.58-.91V207.79A3.51,3.51,0,0,1,181,205.06Z" style="fill: rgb(240, 240, 240); transform-origin: 205.24px 200.1px;" id="elwe8l6e85x2b" class="animable"></path><g id="freepik--stars--inject-15--inject-140" class="animable" style="transform-origin: 205.225px 200.364px;"><path d="M185.57,206.41l.88,1.88a.22.22,0,0,0,.29.11l2-.76c.31-.12.44.32.21.75l-1.42,2.68a.82.82,0,0,0-.11.51l.33,2.43c.06.38-.27.89-.55.85l-1.77-.21a.41.41,0,0,0-.35.2l-1.76,2.26c-.29.35-.61.23-.56-.22l.34-2.81a.41.41,0,0,0-.11-.39l-1.43-1c-.23-.17-.1-.75.21-1l2-1.52a.88.88,0,0,0,.29-.45l.88-2.89C185,206.35,185.43,206.12,185.57,206.41Z" style="fill: rgb(228, 24, 23); transform-origin: 185.255px 211.798px;" id="elv1ue9ihh2gl" class="animable"></path><path d="M195.55,200.7l.89,1.87a.2.2,0,0,0,.28.11l2-.75c.31-.12.43.32.21.74l-1.43,2.68a.91.91,0,0,0-.11.52l.34,2.42c0,.39-.28.89-.56.86l-1.76-.22a.45.45,0,0,0-.36.2l-1.76,2.26c-.28.36-.61.23-.55-.22l.33-2.81a.42.42,0,0,0-.11-.39l-1.42-1c-.23-.16-.11-.75.21-1l2-1.52A1,1,0,0,0,194,204l.88-2.89C195,200.63,195.41,200.4,195.55,200.7Z" style="fill: rgb(228, 24, 23); transform-origin: 195.232px 206.082px;" id="elxm5ohlku9ff" class="animable"></path><path d="M205.54,195l.88,1.87a.22.22,0,0,0,.29.12l2-.76c.31-.12.44.32.21.75l-1.43,2.68a.88.88,0,0,0-.11.51l.34,2.42c.06.39-.27.9-.55.86l-1.77-.22a.45.45,0,0,0-.35.21l-1.77,2.25c-.28.36-.6.23-.55-.21l.34-2.82a.4.4,0,0,0-.11-.38l-1.43-1c-.23-.16-.1-.75.21-1l2-1.52a.82.82,0,0,0,.29-.44l.88-2.89C205,194.92,205.4,194.68,205.54,195Z" style="fill: rgb(228, 24, 23); transform-origin: 205.225px 200.377px;" id="el9sdyl5p7int" class="animable"></path><path d="M215.52,189.26l.88,1.88a.21.21,0,0,0,.29.11l2-.76c.32-.12.44.32.22.75l-1.43,2.68a.89.89,0,0,0-.11.51l.34,2.43c0,.38-.28.89-.56.85l-1.76-.21a.42.42,0,0,0-.36.2L213.24,200c-.28.35-.61.23-.56-.22l.34-2.81a.41.41,0,0,0-.11-.39l-1.43-1c-.22-.17-.1-.75.22-1l2-1.52a1,1,0,0,0,.29-.45l.88-2.89C215,189.2,215.38,189,215.52,189.26Z" style="fill: rgb(224, 224, 224); transform-origin: 215.195px 194.675px;" id="el7w5h2fs3wwd" class="animable"></path><path d="M225.51,183.55l.88,1.87a.21.21,0,0,0,.29.11l2-.75c.31-.12.44.32.21.74l-1.43,2.68a.91.91,0,0,0-.11.52l.34,2.42c.05.39-.27.89-.55.86l-1.77-.22a.43.43,0,0,0-.35.2l-1.77,2.26c-.28.36-.61.23-.55-.22l.34-2.81a.42.42,0,0,0-.11-.39l-1.43-1c-.23-.16-.1-.75.21-1l2-1.52a.91.91,0,0,0,.29-.45l.88-2.89C225,183.48,225.37,183.25,225.51,183.55Z" style="fill: rgb(224, 224, 224); transform-origin: 225.195px 188.932px;" id="ellszpfaxh4l" class="animable"></path></g><path d="M164.87,249.82l-.06-2.92-3.48-2h0a1.11,1.11,0,0,0-1.11.11l-48.48,28a3.48,3.48,0,0,0-1.58,2.72V337.4a1.11,1.11,0,0,0,.45,1h0l3.48,2v-3.47l46.11-26.57a3.46,3.46,0,0,0,1.57-2.72V249.82Z" style="fill: rgb(224, 224, 224); transform-origin: 137.513px 292.6px;" id="elvmetwh7k219" class="animable"></path><path d="M164.81,246.9l-3.48-2h0a1.11,1.11,0,0,0-1.11.11l-48.48,28a3.14,3.14,0,0,0-1,1l4.93,2.85,46.12-26.05Z" style="fill: rgb(250, 250, 250); transform-origin: 137.775px 260.83px;" id="elac7mb7xlbcr" class="animable"></path><path d="M115.21,275l48.48-28c.87-.5,1.58-.1,1.58.9v61.72a3.48,3.48,0,0,1-1.58,2.72l-48.48,27.94c-.87.5-1.57.1-1.57-.91V277.72A3.46,3.46,0,0,1,115.21,275Z" style="fill: rgb(240, 240, 240); transform-origin: 139.455px 293.64px;" id="elzy7cuctbnk" class="animable"></path><g style="clip-path: url(&quot;#freepik--clip-path-5--inject-15--inject-140&quot;); transform-origin: 154.624px 323.684px;" id="elpldnltx9sl" class="animable"><path d="M149.09,301.07s3.81-1.17,7,3.83c2.16,3.41,9.7,16.33,9.7,16.33s14.67-7.78,15.49-8.79.78-3.09.9-4.2a11.89,11.89,0,0,0-.57-4.12c-.17-1.17,1.51-1.23,2.34.39.61,1.18.65,2.53,1.18,2.55a15.36,15.36,0,0,0,2-1.76c.91-1,2.56-2.66,3.8-2.43a1.11,1.11,0,0,1,.83.9,5.53,5.53,0,0,0,.47,2,3.36,3.36,0,0,1,.49.8,7.83,7.83,0,0,1,0,1.28c.05.62.65.88.73,1.48a9.82,9.82,0,0,1-.15,1.39c0,.29.09.55.09.85a2.84,2.84,0,0,1-.75,1.63,17.43,17.43,0,0,1-4.36,3.64c-1.33.88-3.1,1.65-4.61,2.48s-18.8,14.08-21.1,12.51-13.84-18.37-13.84-18.37C146.1,306,149.09,301.07,149.09,301.07Z" style="fill: rgb(255, 168, 167); transform-origin: 170.549px 316.455px;" id="el8rag5ufj8ls" class="animable"></path><path d="M142.4,301.19s4.2-1.71,6.92-1.53,4.74.95,6.74,4.16c2.67,4.29,7.08,11.7,7.08,11.7a21.32,21.32,0,0,1-8.58,9.18l-8.13-12.28Z" style="fill: rgb(69, 90, 100); transform-origin: 152.77px 312.173px;" id="el7pk1ntfp2lf" class="animable"></path><path d="M129.07,308.61a8.94,8.94,0,0,0-3,4.36,21.31,21.31,0,0,0-.9,6.4v13.95L125,359.71c8.85,3,20.1.36,29.54-10.13,0,0-.52-33.77-.52-39.31,0-.25,0-.51,0-.76-.34-7.83-7.1-11.46-13.75-7.7L134.68,305l-5.61,3.64Z" style="fill: rgb(228, 24, 23); transform-origin: 139.77px 330.593px;" id="elowz2vm1bslj" class="animable"></path><g id="elmvpc264zzuf"><path d="M129.07,308.61a8.94,8.94,0,0,0-3,4.36,21.31,21.31,0,0,0-.9,6.4v13.95L125,359.71c8.85,3,20.1.36,29.54-10.13,0,0-.52-33.77-.52-39.31,0-.25,0-.51,0-.76-.34-7.83-7.1-11.46-13.75-7.7L134.68,305l-5.61,3.64Z" style="fill: rgb(255, 255, 255); opacity: 0.6; transform-origin: 139.77px 330.593px;" class="animable"></path></g><path d="M135.13,279.9c0,6,4.18,9.66,9.33,8.28s9.33-7.33,9.33-13.28-4.45-5.95-9.6-4.57S135.13,274,135.13,279.9Z" style="fill: rgb(38, 50, 56); transform-origin: 144.46px 279.025px;" id="elwfr6j5stvse" class="animable"></path><path d="M130.26,289.32s1.37,7.09,1.92,8.17a2.14,2.14,0,0,0,1.69,1.12l-.09-5.22Z" style="fill: rgb(38, 50, 56); transform-origin: 132.065px 293.965px;" id="elnu7k1zum3c8" class="animable"></path><path d="M132,278.17a3.85,3.85,0,0,0-2.63,1.78c-1.13,1.64-.5,5.65.91,9.37l2.59-.35Z" style="fill: rgb(38, 50, 56); transform-origin: 130.829px 283.745px;" id="eldbk0e6tmtj4" class="animable"></path><path d="M133.62,288.76c-.52.5-1.26-.45-1.9-1.06s-2.73-1.09-3.77,1.72.92,5.76,2.57,5.91c2.83.27,3.26-1.94,3.26-1.94l.09,12.1c4.76,5.05,13.1-.9,9.35-3.13v-3.6A16.25,16.25,0,0,0,147,298c2.08-.94,3.4-3.19,4-6,1-4.46,1.4-7.95.54-15.95-1-8.78-10-6.43-15-1.55S133.62,288.76,133.62,288.76Z" style="fill: rgb(255, 189, 167); transform-origin: 139.835px 288.808px;" id="el2khszboseo5" class="animable"></path><path d="M133.62,289.77c-.26.08-1.25-1.56-1.9-2.07-.33-.26-.3-1-.32-1.39a37.47,37.47,0,0,1,.29-5.6,11.35,11.35,0,0,0,.1-3.39,7.86,7.86,0,0,1,.15-3.67A6.48,6.48,0,0,1,134.5,270a6.6,6.6,0,0,1,5.44-.77,2.69,2.69,0,0,1,1.31-2.18,4.11,4.11,0,0,1,2.55-.54A2.41,2.41,0,0,1,146,268a4.45,4.45,0,0,1,3.34-2.67,4.35,4.35,0,0,1,3.72,1.16c.82.91,1,2.62.93,3.79a6.39,6.39,0,0,1-.22,1.62,4.81,4.81,0,0,1-2.21,2.78,5.45,5.45,0,0,1-3.52.65c.26,0-.49,1.9-.59,2.06a3.35,3.35,0,0,1-1.73,1.46,3.89,3.89,0,0,1-4.05-1.05,2.05,2.05,0,0,1-2,1.47,16.94,16.94,0,0,1-2.64-.3c-1.69-.16-1.53,2.23-1.72,3.4C134.88,285,134.5,289.52,133.62,289.77Z" style="fill: rgb(38, 50, 56); transform-origin: 142.697px 277.523px;" id="elsziznm896ss" class="animable"></path><path d="M132,278.83l-3.14-1.1a2.1,2.1,0,0,1,2.38-1.55A2,2,0,0,1,132,278.83Z" style="fill: rgb(38, 50, 56); transform-origin: 130.544px 277.491px;" id="el3gfjn0n9h6i" class="animable"></path><path d="M143.21,298.76s-4.65.17-6.28-.4a4,4,0,0,1-2.25-2,7,7,0,0,0,1.28,2.69c1.19,1.43,7.25,1.1,7.25,1.1Z" style="fill: rgb(242, 144, 119); transform-origin: 138.945px 298.271px;" id="elspal0krdimg" class="animable"></path><path d="M142.1,285.58a1.42,1.42,0,0,1-.94,1.36c-.51.14-.93-.25-.93-.87a1.42,1.42,0,0,1,.93-1.36C141.68,284.57,142.1,285,142.1,285.58Z" style="fill: rgb(38, 50, 56); transform-origin: 141.165px 285.826px;" id="el41so465nl3s" class="animable"></path><path d="M140.6,281.52l-2,1.81a1.75,1.75,0,0,1,.47-2A.92.92,0,0,1,140.6,281.52Z" style="fill: rgb(38, 50, 56); transform-origin: 139.532px 282.167px;" id="elk3h3o3kl1jd" class="animable"></path><path d="M142.79,292.4l2.13.36a1.46,1.46,0,0,1-1.44,1.2C142.89,293.86,142.58,293.17,142.79,292.4Z" style="fill: rgb(242, 144, 119); transform-origin: 143.822px 293.18px;" id="elwbqxz73ur4g" class="animable"></path><path d="M150.65,279.77l-1.82-1.13c.38-.7,1.08-1,1.59-.7A1.39,1.39,0,0,1,150.65,279.77Z" style="fill: rgb(38, 50, 56); transform-origin: 149.862px 278.797px;" id="elnzq9w11f64g" class="animable"></path><path d="M150.26,283.08a1.44,1.44,0,0,1-.94,1.37c-.51.13-.93-.26-.93-.88a1.43,1.43,0,0,1,.93-1.36C149.84,282.07,150.26,282.46,150.26,283.08Z" style="fill: rgb(38, 50, 56); transform-origin: 149.325px 283.328px;" id="elq6w3fy1s2x" class="animable"></path><polygon points="145.24 283.13 145.35 289.64 148.7 287.89 145.24 283.13" style="fill: rgb(242, 144, 119); transform-origin: 146.97px 286.385px;" id="elsbtsvq9ndet" class="animable"></polygon><path d="M115.91,348.51c2-26.88,5.94-36.52,12.49-39.35,2.26,1.68,2.8,9.59.44,15.59,0,0-5.09,17.93-5.38,24a98.24,98.24,0,0,0,1,17,2.4,2.4,0,0,0,1,1.68c1.44.93,1.35,2.29,2.37,3.57.8,1,1.55,1.18,1.4,1.56a1.79,1.79,0,0,1-2,1.07,5.53,5.53,0,0,1-1.76-1,14.8,14.8,0,0,0,1.85,4c1.87,2.84,1.78,4.76-2.6,5.41-2.74.4-4.73-1.3-6.11-8.16-.4-2-1.33-5.54-1.72-8.11A78.49,78.49,0,0,1,115.91,348.51Z" style="fill: rgb(255, 189, 167); transform-origin: 123.084px 345.627px;" id="elbhiqvr4yht" class="animable"></path><path d="M130.26,307.84s-4.77,1.67-7.18,5.57-4.71,10.2-6.32,21.36c0,0,3,4.13,10.89.7,0,0,3.43-14.25,3.73-19.87C131.72,309.46,130.26,307.84,130.26,307.84Z" style="fill: rgb(69, 90, 100); transform-origin: 124.096px 322.336px;" id="elt6zs4w2l2w" class="animable"></path><path d="M138,286.51a4.48,4.48,0,0,1,3.06-3.76l.15-.05c1.6-.51,3.11.18,3.34,1.71a4.2,4.2,0,0,1-2.86,4.26l-.48.15A2.29,2.29,0,0,1,138,286.51Zm2.92-3.2a3.43,3.43,0,0,0-2.33,3.8,2,2,0,0,0,2.69,1.18l.28-.09a3.72,3.72,0,0,0,2.48-2.83,1.93,1.93,0,0,0-2.65-2.21Z" style="fill: rgb(38, 50, 56); transform-origin: 141.274px 285.776px;" id="ell9zroju6soh" class="animable"></path><path d="M146.8,283.69a4.47,4.47,0,0,1,3.06-3.76l.15-.05c1.6-.51,3.11.18,3.34,1.71a4.2,4.2,0,0,1-2.86,4.26L150,286A2.29,2.29,0,0,1,146.8,283.69Zm2.92-3.2a3.43,3.43,0,0,0-2.33,3.8,2,2,0,0,0,2.69,1.17l.28-.09a3.69,3.69,0,0,0,2.48-2.82,1.93,1.93,0,0,0-2.65-2.21Z" style="fill: rgb(38, 50, 56); transform-origin: 150.075px 282.953px;" id="el6dyifg33yfa" class="animable"></path><path d="M144.26,283.86a3.06,3.06,0,0,1,1.31-.92A1.42,1.42,0,0,1,147,283l.39-.44a1.79,1.79,0,0,0-1.88-.13,3.74,3.74,0,0,0-1.61,1.13C143.77,283.75,144.15,284,144.26,283.86Z" style="fill: rgb(38, 50, 56); transform-origin: 145.632px 283.062px;" id="elqfxyhjlbi9" class="animable"></path><path d="M132.44,288.47l5.87-1.88,0-.51-6.17,2A2.2,2.2,0,0,1,132.44,288.47Z" style="fill: rgb(38, 50, 56); transform-origin: 135.225px 287.275px;" id="eldygqgfeg48d" class="animable"></path></g><path d="M164.87,323.57l-.06-2.92-3.48-2h0a1.12,1.12,0,0,0-1.11.12l-48.48,28a3.48,3.48,0,0,0-1.58,2.72v14.44a1.11,1.11,0,0,0,.45,1h0l3.48,2v-3.47l46.11-26.57a3.46,3.46,0,0,0,1.57-2.72V323.57Z" style="fill: rgb(224, 224, 224); transform-origin: 137.513px 342.743px;" id="el8516bbejw9c" class="animable"></path><path d="M164.81,320.65l-3.48-2h0a1.12,1.12,0,0,0-1.11.12l-48.48,28a3.14,3.14,0,0,0-1,1l4.93,2.85,46.12-26.05Z" style="fill: rgb(250, 250, 250); transform-origin: 137.775px 334.588px;" id="elljl41s75nss" class="animable"></path><path d="M115.21,348.75l48.48-28c.87-.5,1.58-.1,1.58.91v14.49a3.48,3.48,0,0,1-1.58,2.72l-48.48,27.94c-.87.5-1.57.1-1.57-.91V351.47A3.46,3.46,0,0,1,115.21,348.75Z" style="fill: rgb(240, 240, 240); transform-origin: 139.455px 343.78px;" id="elxrji96pj16a" class="animable"></path><g id="freepik--stars--inject-15--inject-140" class="animable" style="transform-origin: 139.478px 344.048px;"><path d="M119.83,350.1l.88,1.87a.21.21,0,0,0,.29.11l2-.75c.31-.12.44.32.21.74l-1.43,2.68a.91.91,0,0,0-.11.52l.34,2.42c0,.39-.27.89-.55.86l-1.77-.22a.42.42,0,0,0-.35.21l-1.77,2.25c-.28.36-.61.23-.55-.22l.33-2.81a.4.4,0,0,0-.11-.39l-1.42-1c-.23-.16-.1-.75.21-1l2-1.52a.92.92,0,0,0,.29-.44l.88-2.9C119.28,350,119.69,349.8,119.83,350.1Z" style="fill: rgb(228, 24, 23); transform-origin: 119.515px 355.479px;" id="el6wfhemi7ro" class="animable"></path><path d="M129.81,344.38l.88,1.87a.22.22,0,0,0,.29.12l2-.76c.32-.12.44.32.21.75L131.74,349a.89.89,0,0,0-.11.51L132,352c.06.38-.27.89-.55.85l-1.76-.22a.45.45,0,0,0-.36.21l-1.76,2.25c-.28.36-.61.23-.56-.21l.34-2.82a.4.4,0,0,0-.11-.38l-1.43-1c-.23-.17-.1-.75.21-1l2-1.52a.86.86,0,0,0,.28-.44l.89-2.89C129.27,344.32,129.67,344.08,129.81,344.38Z" style="fill: rgb(228, 24, 23); transform-origin: 129.501px 349.773px;" id="el0z2hf13h4brh" class="animable"></path><path d="M139.79,338.66l.89,1.88a.2.2,0,0,0,.28.11l2-.76c.31-.12.43.33.21.75l-1.43,2.68a.89.89,0,0,0-.11.51l.34,2.43c.05.38-.28.89-.56.86l-1.76-.22c-.11,0-.24.06-.36.2l-1.76,2.26c-.28.36-.61.23-.55-.22l.33-2.81a.41.41,0,0,0-.11-.39l-1.42-1c-.23-.16-.11-.75.21-1l2-1.52a1,1,0,0,0,.29-.45l.88-2.89C139.25,338.6,139.65,338.37,139.79,338.66Z" style="fill: rgb(228, 24, 23); transform-origin: 139.472px 344.05px;" id="elndew15jssd" class="animable"></path><path d="M149.78,333l.88,1.87a.21.21,0,0,0,.29.11l2-.75c.31-.12.44.32.21.74l-1.42,2.68a.84.84,0,0,0-.11.52l.33,2.42c.06.39-.27.89-.55.86l-1.77-.22a.42.42,0,0,0-.35.21l-1.77,2.25c-.28.36-.6.23-.55-.22l.34-2.81a.42.42,0,0,0-.11-.39l-1.43-1c-.23-.16-.1-.75.21-1l2-1.52a.86.86,0,0,0,.29-.44l.88-2.9C149.23,332.88,149.64,332.65,149.78,333Z" style="fill: rgb(228, 24, 23); transform-origin: 149.465px 338.365px;" id="elvburbcmvahn" class="animable"></path><path d="M159.76,327.23l.89,1.88a.21.21,0,0,0,.28.11l2-.76c.31-.12.43.32.21.75l-1.43,2.68a.89.89,0,0,0-.11.51l.34,2.43c.05.38-.28.89-.56.85l-1.76-.22a.46.46,0,0,0-.36.21l-1.76,2.25c-.28.36-.61.23-.56-.21l.34-2.82a.4.4,0,0,0-.11-.38l-1.43-1c-.22-.17-.1-.75.22-1l2-1.52a.94.94,0,0,0,.29-.44l.88-2.89C159.22,327.17,159.62,326.93,159.76,327.23Z" style="fill: rgb(224, 224, 224); transform-origin: 159.44px 332.613px;" id="el8x7wlaujklk" class="animable"></path></g><path d="M164.87,144.6l-.06-2.92-3.48-2h0a1.11,1.11,0,0,0-1.11.11l-48.48,28a3.48,3.48,0,0,0-1.58,2.72v61.66a1.11,1.11,0,0,0,.45,1h0l3.48,2v-3.46l46.11-26.57a3.46,3.46,0,0,0,1.57-2.72V144.6Z" style="fill: rgb(224, 224, 224); transform-origin: 137.513px 187.375px;" id="eldn4qlnpf9ge" class="animable"></path><path d="M164.81,141.68l-3.48-2h0a1.11,1.11,0,0,0-1.11.11l-48.48,28a3,3,0,0,0-1,1l4.93,2.85,46.12-26Z" style="fill: rgb(250, 250, 250); transform-origin: 137.775px 155.61px;" id="eldyr6jersfrg" class="animable"></path><path d="M115.21,169.78l48.48-28c.87-.51,1.58-.1,1.58.9v61.72a3.48,3.48,0,0,1-1.58,2.72l-48.48,27.94c-.87.5-1.57.09-1.57-.91V172.5A3.46,3.46,0,0,1,115.21,169.78Z" style="fill: rgb(240, 240, 240); transform-origin: 139.455px 188.417px;" id="ele8hvt88mlb8" class="animable"></path><g style="clip-path: url(&quot;#freepik--clip-path-6--inject-15--inject-140&quot;); transform-origin: 144.855px 222.469px;" id="el8w9v754u7to" class="animable"><path d="M155.24,206.33l-26.36,7.31s0-20,0-27h0c0-8.4,5.85-16.82,13.13-18.8h0c7.28-2,13.2,3.21,13.23,11.6h0C155.27,186.41,155.24,206.33,155.24,206.33Z" style="fill: rgb(38, 50, 56); transform-origin: 142.067px 190.526px;" id="elmt9po0vmq6c" class="animable"></path><path d="M131.12,177.52l-3.41-2.44a2.29,2.29,0,0,1,2.89,0A1.63,1.63,0,0,1,131.12,177.52Z" style="fill: rgb(38, 50, 56); transform-origin: 129.587px 176.043px;" id="el1kb7fgdq3za" class="animable"></path><path d="M131.37,176.87l-1.35-4a2.31,2.31,0,0,1,2.36,1.68A1.63,1.63,0,0,1,131.37,176.87Z" style="fill: rgb(38, 50, 56); transform-origin: 131.291px 174.868px;" id="elod19l978rgf" class="animable"></path><path d="M152.81,233.41c-5.44-23.86-11.67-28.07-5.85-33,6-2.28,9.06,1,10.1,8,.51,3.42,1.62,17.72,3,23.07,1.22,4.7,2.86,10.51,4.68,13.87a2,2,0,0,0,1.5,1.05c1.71.25,2.21,1.2,3.59,1.91,1.09.55,1.89.41,1.84.79a2.13,2.13,0,0,1-1.72,1.69,6.08,6.08,0,0,1-2-.13,11.34,11.34,0,0,0,3,2.72c2.67,1.72,3.1,3.4-1.12,5.65-2.65,1.41-5.13.72-8.41-4.64a43.34,43.34,0,0,1-3.3-6.22C155.77,242.29,153.68,237.25,152.81,233.41Z" style="fill: rgb(153, 81, 83); transform-origin: 158.802px 229.678px;" id="el01hiaw7zvjqp" class="animable"></path><path d="M137.26,203.25h0c-5.91,2.05-6.33,5.46-7.81,9.46a13.73,13.73,0,0,0-.28,8.88l4.12,12.66a85.49,85.49,0,0,0-4.17,11.59c10.35,3.89,23.26-3.07,26.37-8.77.13-1.06-.67-8.91-1.16-14,1.82-5.76,2.3-9.24,1.53-12.52-1.43-6.09-7-10.91-9.41-10Z" style="fill: rgb(228, 24, 23); transform-origin: 142.389px 223.704px;" id="elq4zphnyhm2i" class="animable"></path><g id="elt8jjtormu2n"><path d="M139.91,244.24c-3.4,0-5.56-3.41-4.66-7.54a2.49,2.49,0,0,1,.11-.4c.66-2,2.09-2.17,2.09-2.17h0c-1.34-.67-2-2.25-2.29-4l-1.55-8.06a12,12,0,0,1,.32-4.27l-4.16-4.43-.77.82a13.56,13.56,0,0,0,.17,7.39l4.12,12.66a78.63,78.63,0,0,0-4.17,11.59c7.63,2.87,16.64-.16,22.1-4.23A28,28,0,0,1,139.91,244.24Z" style="opacity: 0.1; transform-origin: 139.894px 230.165px;" class="animable"></path></g><path d="M150.29,172.39c1.39.57,3.13,4.14,3,12.65-.12,7.22-2.13,9.54-3.14,10.33s-3,1-4.86,1.16l.11,4.34s3.2,2.16,3,4.18-4.44,4.08-6.9,2.83a21,21,0,0,1-4.43-3.23.35.35,0,0,1-.1-.27V193.5s-1.11,1.56-3,.17a4.07,4.07,0,0,1-.89-5.43c1.21-1.76,3.46-2,4.33-.19,0,0,3-.69,7.06-4.35A18.3,18.3,0,0,0,150.29,172.39Z" style="fill: rgb(153, 81, 83); transform-origin: 142.856px 190.325px;" id="el66hkafzapk9" class="animable"></path><path d="M146.2,185.14a1.23,1.23,0,0,1-.74,1.18c-.43.14-.8-.16-.83-.67a1.23,1.23,0,0,1,.74-1.18C145.8,184.32,146.17,184.62,146.2,185.14Z" style="fill: rgb(38, 50, 56); transform-origin: 145.415px 185.393px;" id="el5rmgnehlo62" class="animable"></path><path d="M146.43,191.16l1.82.18a1.27,1.27,0,0,1-1.18,1.07C146.56,192.36,146.28,191.8,146.43,191.16Z" style="fill: rgb(115, 59, 60); transform-origin: 147.32px 191.785px;" id="elq4dn4htnoum" class="animable"></path><path d="M152.6,180.61l-1.59-.83c.29-.6.88-.9,1.32-.67A1.14,1.14,0,0,1,152.6,180.61Z" style="fill: rgb(38, 50, 56); transform-origin: 151.89px 179.821px;" id="el4ep939fxli9" class="animable"></path><path d="M152.24,182.83a1.2,1.2,0,0,1-.73,1.18c-.44.15-.81-.15-.83-.67a1.23,1.23,0,0,1,.74-1.18C151.85,182,152.22,182.32,152.24,182.83Z" style="fill: rgb(38, 50, 56); transform-origin: 151.461px 183.084px;" id="el0h4o62oamjq" class="animable"></path><polygon points="148.72 182.83 148.69 188.72 151.17 187.16 148.72 182.83" style="fill: rgb(115, 59, 60); transform-origin: 149.93px 185.775px;" id="elkylbwzt386" class="animable"></polygon><path d="M145.15,196.53c-2,.25-6.13,0-6.78-1.7a3.56,3.56,0,0,0,1.46,2c1.23.88,5.35,1.15,5.35,1.15Z" style="fill: rgb(115, 59, 60); transform-origin: 141.775px 196.405px;" id="elea6v74dlfo" class="animable"></path><path d="M118.67,242.53c4.6-22.93,7.5-32.82,12.54-36.31a16.2,16.2,0,0,1,3.42-1.69c.69.26.76,1.77.89,2.75a24.12,24.12,0,0,1-2.62,13.13s-6.71,18.14-7.78,24.23c-.93,5.34-2,12-1.94,16.39a2.8,2.8,0,0,0,.74,1.93c1.24,1.21,1.24,2.44,2,3.93.63,1.16,1.31,1.47,1.11,1.82a1.57,1.57,0,0,1-2,.71,5.47,5.47,0,0,1-1.53-1.28,16.62,16.62,0,0,0,1.21,4.38c1.38,3.22,1,5.13-3.15,5-2.62-.1-4.27-2.18-4.67-9.36a66.18,66.18,0,0,1-.07-8.05C117.4,253,117.81,246.84,118.67,242.53Z" style="fill: rgb(153, 81, 83); transform-origin: 126.168px 241.028px;" id="elizlmbxzxaxs" class="animable"></path></g><path d="M164.87,217.88l-.06-2.93-3.48-2h0a1.09,1.09,0,0,0-1.11.11l-48.48,28a3.48,3.48,0,0,0-1.58,2.72v14.44a1.11,1.11,0,0,0,.45,1h0l3.48,2v-3.47l46.11-26.57a3.46,3.46,0,0,0,1.57-2.72v-10.6Z" style="fill: rgb(224, 224, 224); transform-origin: 137.513px 237.033px;" id="elxtm8n29er4" class="animable"></path><path d="M164.81,215l-3.48-2h0a1.09,1.09,0,0,0-1.11.11l-48.48,28a3.14,3.14,0,0,0-1,1l4.93,2.85,46.12-26Z" style="fill: rgb(250, 250, 250); transform-origin: 137.775px 228.928px;" id="elsl9zgz2ihu9" class="animable"></path><path d="M115.21,243.05l48.48-28c.87-.5,1.58-.1,1.58.91v14.49a3.48,3.48,0,0,1-1.58,2.72l-48.48,27.94c-.87.51-1.57.1-1.57-.9V245.77A3.46,3.46,0,0,1,115.21,243.05Z" style="fill: rgb(240, 240, 240); transform-origin: 139.455px 238.082px;" id="eli66cdgohmw" class="animable"></path><g id="freepik--stars--inject-15--inject-140" class="animable" style="transform-origin: 139.473px 238.355px;"><path d="M119.83,244.4l.88,1.87a.22.22,0,0,0,.29.12l2-.76c.31-.12.44.32.21.75l-1.43,2.67a.93.93,0,0,0-.11.52L122,252c0,.39-.27.89-.55.86l-1.77-.22a.45.45,0,0,0-.35.21l-1.77,2.25c-.28.36-.61.23-.55-.21l.33-2.82a.4.4,0,0,0-.11-.39l-1.42-1c-.23-.16-.1-.75.21-1l2-1.52a.88.88,0,0,0,.29-.44l.88-2.9C119.28,244.34,119.69,244.1,119.83,244.4Z" style="fill: rgb(228, 24, 23); transform-origin: 119.51px 249.788px;" id="el1ehxgtie075" class="animable"></path><path d="M129.81,238.68l.88,1.88a.22.22,0,0,0,.29.11l2-.76c.32-.12.44.32.21.75l-1.42,2.68a.89.89,0,0,0-.11.51l.33,2.43c.06.38-.27.89-.55.85l-1.76-.21a.41.41,0,0,0-.36.2l-1.76,2.26c-.28.35-.61.23-.56-.22l.34-2.81a.41.41,0,0,0-.11-.39l-1.43-1c-.23-.17-.1-.75.21-1l2-1.52a.94.94,0,0,0,.28-.45l.89-2.89C129.27,238.62,129.67,238.39,129.81,238.68Z" style="fill: rgb(228, 24, 23); transform-origin: 129.496px 244.068px;" id="el7va2fdrocgm" class="animable"></path><path d="M139.79,233l.89,1.87a.2.2,0,0,0,.28.11l2-.75c.31-.12.43.32.21.74l-1.43,2.68a.91.91,0,0,0-.11.52l.34,2.42c.05.39-.28.89-.56.86l-1.76-.22a.46.46,0,0,0-.36.2l-1.76,2.26c-.28.36-.61.23-.55-.22l.33-2.81a.42.42,0,0,0-.11-.39l-1.42-1c-.23-.16-.11-.75.21-1l2-1.52a1,1,0,0,0,.29-.45l.88-2.89C139.25,232.9,139.65,232.67,139.79,233Z" style="fill: rgb(228, 24, 23); transform-origin: 139.472px 238.372px;" id="el1oety4neln6" class="animable"></path><path d="M149.78,227.25l.88,1.87a.22.22,0,0,0,.29.12l2-.76c.31-.12.44.32.21.75l-1.42,2.67a.85.85,0,0,0-.11.52l.33,2.42c.06.39-.27.9-.55.86l-1.77-.22a.45.45,0,0,0-.35.21l-1.77,2.25c-.28.36-.6.23-.55-.21l.34-2.82a.42.42,0,0,0-.11-.39l-1.43-1c-.23-.16-.1-.75.21-1l2-1.52a.82.82,0,0,0,.29-.44l.88-2.89C149.23,227.19,149.64,227,149.78,227.25Z" style="fill: rgb(228, 24, 23); transform-origin: 149.465px 232.644px;" id="el9m704wxjcz8" class="animable"></path><path d="M159.76,221.53l.89,1.88a.2.2,0,0,0,.28.11l2-.76c.31-.12.43.32.21.75l-1.43,2.68a.89.89,0,0,0-.11.51l.34,2.43c.05.38-.28.89-.56.85l-1.76-.21a.42.42,0,0,0-.36.2l-1.76,2.26c-.28.35-.61.23-.56-.22l.34-2.81a.41.41,0,0,0-.11-.39l-1.43-1c-.22-.17-.1-.75.22-1l2-1.52a1,1,0,0,0,.29-.45l.88-2.89C159.22,221.47,159.62,221.24,159.76,221.53Z" style="fill: rgb(228, 24, 23); transform-origin: 159.44px 226.918px;" id="elkpsfbbfmm9" class="animable"></path></g></g><g id="freepik--character--inject-15--inject-140" class="animable animator-active" style="transform-origin: 385.539px 283.036px;"><path d="M432.74,378.26c.66.27.79,1.53.84,4,0,1.89.36,5.2-1.87,5.8s-5.46.2-6.84-1.61c-1.72-2.26-2.87-4.25-5.34-7-2.14-2.4-4.46-4.65-5.27-8-.73-3,0-4.28,2-5.1,2.82-1.13,7.13,2.86,9.31,3.53C427.46,370.49,432.09,378,432.74,378.26Z" style="fill: rgb(38, 50, 56); transform-origin: 423.792px 377.235px;" id="ellj9ivxukjvf" class="animable"></path><path d="M432.79,376l-.07,3.07a7.52,7.52,0,0,1-7.75,0c-.13-.3-.71-4.4-.71-4.4Z" style="fill: rgb(255, 168, 167); transform-origin: 428.525px 377.408px;" id="el0b4cnu5jltkc" class="animable"></path><path d="M407.51,395.38a51.26,51.26,0,0,1,1.24,5c.33,1.87.81,5,.12,6.36s-3.23,2.22-7.15,2.1c-2.55-.07-6.55,1.56-9.3,3s-8.68,2-11.63,1.57c-3.49-.48-7.06-2.59-7.59-4.05s.25-2.95,8.56-6.27c.08,0,11.53-3.47,15.61-7.78Z" style="fill: rgb(38, 50, 56); transform-origin: 391.147px 404.431px;" id="elebwxxd9hjh5" class="animable"></path><path d="M407.58,392.06s-.06,2.28-.08,3.58-1.6,3.2-5.57,3c-2.79-.16-4.72-1-4.56-3.26l.08-3.31Z" style="fill: rgb(255, 168, 167); transform-origin: 402.47px 395.357px;" id="elxwzuvrrmbm" class="animable"></path><path d="M435.7,335.3a82.65,82.65,0,0,0-3.26-16.06s1.41-13.75,2.23-26.81c.88-14.09.69-31.85,1-35.36,0,0-45.33-10.24-46.51,6.05s.5,57.89.88,65.06,1.47,13.55,2.69,25.2c1.2,11.49,4.69,38.66,4.69,38.66a10.74,10.74,0,0,0,10.13,0s3.94-32.55,3.79-40.82a70.44,70.44,0,0,0-2.73-18.12s1.17-13.44,2.2-25.12,2-17.28,2.25-22.37l1-.46s.54,20.2.92,27.38,1.36,14.08,3.13,27.44c1.54,11.59,6.35,36.14,6.35,36.14,5.14,2.93,8.31-.18,8.31-.18S436.88,345.35,435.7,335.3Z" style="fill: rgb(55, 71, 79); transform-origin: 412.33px 323.601px;" id="elkg88kk1iw8l" class="animable"></path><path d="M413.09,285.63s11.17-5.19,16.81-10c0,0-5.3,7.12-12.11,10.17,0,0-3,25-2.94,24.53L414,285.61Z" style="fill: rgb(38, 50, 56); transform-origin: 421.495px 292.983px;" id="elm2xeyt979o" class="animable"></path><polygon points="405.35 192.63 407.7 207.52 421.12 206.84 419.56 189.42 405.35 192.63" style="fill: rgb(255, 168, 167); transform-origin: 413.235px 198.47px;" id="el3ogm8neg2y9" class="animable"></polygon><path d="M423.9,198.35s7.35-2.61,11.34,4.07.68,18.39.68,18.39Z" style="fill: rgb(228, 24, 23); transform-origin: 430.554px 209.329px;" id="el4l2pfc7lq4v" class="animable"></path><path d="M435.3,206.08c-1.24-4.07-6.26-8.57-11.4-7.73-1.19.19-2.35.39-3.49.59-.61,2.51-7,4.45-13.61,2.9q-3,.78-5.44,1.6c-4.73,1.57-9.09,5.52-9.82,20.93,0,0-2.38,35.91-2.57,42.86,11.67,4.92,23.91,5,30.71,3.73,14.15-2.76,16-8.57,16-8.57s.77-25.84.6-37C436.11,215.89,436.14,208.87,435.3,206.08Z" style="fill: rgb(230, 230, 230); transform-origin: 412.637px 234.949px;" id="el6u79acx5d57" class="animable"></path><polygon points="362.87 181.54 334.92 196.13 348.81 234.1 374.89 219.49 362.87 181.54" style="fill: rgb(228, 24, 23); transform-origin: 354.905px 207.82px;" id="el1aj1mrk93we" class="animable"></polygon><polygon points="361.59 185.26 338.14 197.5 350.43 230.15 372.31 217.89 361.59 185.26" style="fill: rgb(245, 245, 245); transform-origin: 355.225px 207.705px;" id="elhpiixd0ccxe" class="animable"></polygon><g id="elkxcwzbcm6ff"><path d="M356.64,188.78l-.45-1.16c-.26-.64-2.21-.26-4.36.86l-4.13,2.13c-2.16,1.11-3.7,2.54-3.45,3.18l.45,1.16Z" style="opacity: 0.15; transform-origin: 350.432px 191.13px;" class="animable"></path></g><path d="M356.19,184.14c-.16-.4-1-.34-1.9.14l-1.62.88s-1-2.51-4.71-.78-2.87,4.65-2.87,4.65l-1.72.94c-.95.53-1.62,1.28-1.51,1.69l.21.74,14.4-7.52Z" style="fill: rgb(55, 71, 79); transform-origin: 349.159px 188.086px;" id="elee07an3eq47" class="animable"></path><path d="M354.63,185.82c-1.34.66-1.86,1-1.48,2s.85,1.94.85,1.94l-6.37,3.33s-.53-1.44-.76-2-.7-.82-1.71-.29l-.38-.4,10.05-5.12Z" style="fill: rgb(38, 50, 56); transform-origin: 349.805px 189.185px;" id="elna6h24t4m2f" class="animable"></path><path d="M356.91,188.85l-.45-1.17c-.25-.64-2.2-.25-4.36.86L348,190.67c-2.16,1.11-3.7,2.54-3.45,3.18L345,195Z" style="fill: rgb(55, 71, 79); transform-origin: 350.717px 191.186px;" id="elx1hpqvj8av" class="animable"></path><path d="M390.83,235.25s6.92-8.39,8.72-14.55a36.75,36.75,0,0,1-8.92,17.59Z" style="fill: rgb(224, 224, 224); transform-origin: 395.09px 229.495px;" id="el50ta6nwt4os" class="animable"></path><path d="M400.58,203.76c-5.35,1.6-8.61,1.89-14.52,11S366.78,240.87,365.5,243c-1.78,3-2.12,7.6-.58,10.37,1.44,2.58,4.89,1.06,10.75-4.08,5.67-5,17.64-18.66,17.64-18.66A97.1,97.1,0,0,0,400.58,203.76Z" style="fill: rgb(255, 168, 167); transform-origin: 382.261px 229.182px;" id="elr38vcpmj4s" class="animable"></path><path d="M400.58,203.76a41.18,41.18,0,0,0-7.74,2.45,13.93,13.93,0,0,0-6.58,4.54c-4.8,6.42-11.84,19.4-11.84,19.4s1.61,7.64,11.95,10.6c0,0,10-12,11.35-15C400.05,220.59,402.25,211.79,400.58,203.76Z" style="fill: rgb(228, 24, 23); transform-origin: 387.793px 222.255px;" id="elaycoden4vpp" class="animable"></path><path d="M366.72,254.67c-5-.6-15.63-15.56-18.91-20.68a36.63,36.63,0,0,0-10-10.56c-5.24-3.86-4.47-9.81-2.19-15.25.79-1.89,3.47-.66,3.47-.66l.95,2.58,1.64,4.48c1.11,1,1.74,1.36,1.81,1.06.14-.58-.81-3-.79-5.5,0-3,2.14-1,2.77,0a37.27,37.27,0,0,1,2.23,5c1.06,2.7.62,5.44,1.91,7.28s18.51,18.35,18.51,18.35Z" style="fill: rgb(255, 168, 167); transform-origin: 350.995px 230.898px;" id="ellhs2tfb22t" class="animable"></path><path d="M395.41,174.35s-3.51,5.34-3.11,5.87,3,1,3,1Z" style="fill: rgb(242, 143, 143); transform-origin: 393.839px 177.785px;" id="ellmd8f5o5j9" class="animable"></path><path d="M397.06,177.79a4.2,4.2,0,1,1,4.19-4.2A4.2,4.2,0,0,1,397.06,177.79Zm0-7.46a3.26,3.26,0,1,0,3.26,3.26A3.26,3.26,0,0,0,397.06,170.33Z" style="fill: rgb(38, 50, 56); transform-origin: 397.05px 173.59px;" id="elck13tcf9ntm" class="animable"></path><path d="M405.19,159.58c-7.13,1.51-9.18,4.64-9.85,15.95-.7,11.82.5,15.53,2.06,17.13,1,1.07,6.87,1.27,9.81.45,3.68-1,12-4,15.88-9.9,4.58-7,5.79-16.48.88-20.37C417.07,157.37,408.08,159,405.19,159.58Z" style="fill: rgb(255, 168, 167); transform-origin: 411.134px 176.256px;" id="el7x96rd0kcs4" class="animable"></path><polygon points="393.26 172.72 405.92 174.35 405.41 175.25 393.26 173.67 393.26 172.72" style="fill: rgb(38, 50, 56); transform-origin: 399.59px 173.985px;" id="el3izobiutwwf" class="animable"></polygon><path d="M394.55,163.28l.22.21c1.37,1.3,3.12,2.12,4.55,3.36a10.59,10.59,0,0,1,3.24,5.14c.47,1.64.65,3.58,2.43,4.34,0,0,1.13-4.37,4.81-3.82s4.21,5.28,1.87,8.15-4.51,1.77-4.51,1.77.11,6.25,2.88,9.78c0,0,3.15,1,8.94-.21,3.56-.76,8.6-5.21,10.71-9.92,4.48-10,4.79-18.94-1.57-21.63-.69-4.59-4.31-6.65-8.43-7.6-6.16-1.41-11.93,2.25-18,.88-1.27-.28-2.52-.74-3.82-.9a.83.83,0,0,0-.44,0c-.31.16-.29.61-.2.94a8,8,0,0,0,1.8,3.29,18.84,18.84,0,0,1-6.91-.87A8.91,8.91,0,0,0,394.55,163.28Z" style="fill: rgb(38, 50, 56); transform-origin: 412.528px 172.559px;" id="el6c1l5byqq2y" class="animable"></path><path d="M428.23,162l4.26-2.51a2.47,2.47,0,1,0-4.26,2.51Z" style="fill: rgb(38, 50, 56); transform-origin: 430.189px 160.136px;" id="elzi95m7w5exb" class="animable"></path><path d="M404.92,178.83l.13-5a2.48,2.48,0,1,0-.13,5Z" style="fill: rgb(38, 50, 56); transform-origin: 403.767px 176.33px;" id="elp0gnpgw12nh" class="animable"></path></g><defs>     <filter id="active" height="200%">         <feMorphology in="SourceAlpha" result="DILATED" operator="dilate" radius="2"></feMorphology>                <feFlood flood-color="#32DFEC" flood-opacity="1" result="PINK"></feFlood>        <feComposite in="PINK" in2="DILATED" operator="in" result="OUTLINE"></feComposite>        <feMerge>            <feMergeNode in="OUTLINE"></feMergeNode>            <feMergeNode in="SourceGraphic"></feMergeNode>        </feMerge>    </filter>    <filter id="hover" height="200%">        <feMorphology in="SourceAlpha" result="DILATED" operator="dilate" radius="2"></feMorphology>                <feFlood flood-color="#ff0000" flood-opacity="0.5" result="PINK"></feFlood>        <feComposite in="PINK" in2="DILATED" operator="in" result="OUTLINE"></feComposite>        <feMerge>            <feMergeNode in="OUTLINE"></feMergeNode>            <feMergeNode in="SourceGraphic"></feMergeNode>        </feMerge>            <feColorMatrix type="matrix" values="0   0   0   0   0                0   1   0   0   0                0   0   0   0   0                0   0   0   1   0 "></feColorMatrix>    </filter></defs><defs><clipPath id="freepik--clip-path--inject-15--inject-140"><path d="M246.64,199.13l48.48-28c.87-.5,1.57-.1,1.57.91v61.71a3.46,3.46,0,0,1-1.57,2.72l-48.48,27.94c-.87.5-1.57.1-1.57-.9V201.85A3.46,3.46,0,0,1,246.64,199.13Z" style="fill:none"></path></clipPath><clipPath id="freepik--clip-path-2--inject-15--inject-140"><path d="M246.64,93.91l48.48-28c.87-.5,1.57-.1,1.57.91v61.71a3.46,3.46,0,0,1-1.57,2.72L246.64,159.2c-.87.5-1.57.1-1.57-.91V96.63A3.46,3.46,0,0,1,246.64,93.91Z" style="fill:none"></path></clipPath><clipPath id="freepik--clip-path-3--inject-15--inject-140"><path d="M181,237l48.49-28c.87-.5,1.57-.1,1.57.91v61.71a3.46,3.46,0,0,1-1.57,2.72L181,302.33c-.87.5-1.58.1-1.58-.91V239.76A3.49,3.49,0,0,1,181,237Z" style="fill:none"></path></clipPath><clipPath id="freepik--clip-path-4--inject-15--inject-140"><path d="M181,131.81l48.49-28c.87-.5,1.57-.09,1.57.91v61.71a3.47,3.47,0,0,1-1.57,2.73L181,197.11c-.87.5-1.58.09-1.58-.91V134.54A3.49,3.49,0,0,1,181,131.81Z" style="fill:none"></path></clipPath><clipPath id="freepik--clip-path-5--inject-15--inject-140"><path d="M115.21,275l48.48-28c.87-.51,1.58-.1,1.58.9v61.72a3.48,3.48,0,0,1-1.58,2.72l-48.48,27.94c-.87.5-1.57.1-1.57-.91V277.72A3.46,3.46,0,0,1,115.21,275Z" style="fill:none"></path></clipPath><clipPath id="freepik--clip-path-6--inject-15--inject-140"><path d="M115.21,169.78l48.48-28c.87-.51,1.58-.1,1.58.9v61.72a3.48,3.48,0,0,1-1.58,2.72l-48.48,27.94c-.87.5-1.57.09-1.57-.91V172.5A3.46,3.46,0,0,1,115.21,169.78Z" style="fill:none"></path></clipPath></defs></svg>